<svg xmlns="http://www.w3.org/2000/svg" xmlns:xlink="http://www.w3.org/1999/xlink" width="500" zoomAndPan="magnify" viewBox="39 39 297 297" height="500" preserveAspectRatio="xMidYMid meet" version="1.0"><defs><g/><clipPath id="2946fecf32"><path d="M 43.589844 43.734375 L 335.613281 43.734375 L 335.613281 335.757812 L 43.589844 335.757812 Z M 43.589844 43.734375 " clip-rule="nonzero"/></clipPath><clipPath id="b4fa09d458"><path d="M 335.613281 88.734375 L 335.613281 290.757812 C 335.613281 302.691406 330.871094 314.140625 322.433594 322.578125 C 313.992188 331.015625 302.546875 335.757812 290.613281 335.757812 L 88.589844 335.757812 C 76.652344 335.757812 65.207031 331.015625 56.769531 322.578125 C 48.328125 314.140625 43.589844 302.691406 43.589844 290.757812 L 43.589844 88.734375 C 43.589844 76.800781 48.328125 65.351562 56.769531 56.914062 C 65.207031 48.476562 76.652344 43.734375 88.589844 43.734375 L 290.613281 43.734375 C 302.546875 43.734375 313.992188 48.476562 322.433594 56.914062 C 330.871094 65.351562 335.613281 76.800781 335.613281 88.734375 Z M 335.613281 88.734375 " clip-rule="nonzero"/></clipPath><clipPath id="fc3b9c6244"><path d="M 0.589844 0.734375 L 292.613281 0.734375 L 292.613281 292.757812 L 0.589844 292.757812 Z M 0.589844 0.734375 " clip-rule="nonzero"/></clipPath><clipPath id="d934207dc1"><path d="M 292.613281 45.734375 L 292.613281 247.757812 C 292.613281 259.691406 287.871094 271.140625 279.433594 279.578125 C 270.992188 288.015625 259.546875 292.757812 247.613281 292.757812 L 45.589844 292.757812 C 33.652344 292.757812 22.207031 288.015625 13.769531 279.578125 C 5.328125 271.140625 0.589844 259.691406 0.589844 247.757812 L 0.589844 45.734375 C 0.589844 33.800781 5.328125 22.351562 13.769531 13.914062 C 22.207031 5.476562 33.652344 0.734375 45.589844 0.734375 L 247.613281 0.734375 C 259.546875 0.734375 270.992188 5.476562 279.433594 13.914062 C 287.871094 22.351562 292.613281 33.800781 292.613281 45.734375 Z M 292.613281 45.734375 " clip-rule="nonzero"/></clipPath><linearGradient x1="0" gradientTransform="matrix(1.140721, 0, 0, 1.140721, 0.588526, 0.734086)" y1="128" x2="256" gradientUnits="userSpaceOnUse" y2="128" id="0d4fe71e78"><stop stop-opacity="1" stop-color="rgb(42.749023%, 15.689087%, 85.099792%)" offset="0"/><stop stop-opacity="1" stop-color="rgb(42.735291%, 15.760803%, 84.962463%)" offset="0.0078125"/><stop stop-opacity="1" stop-color="rgb(42.707825%, 15.904236%, 84.689331%)" offset="0.015625"/><stop stop-opacity="1" stop-color="rgb(42.680359%, 16.049194%, 84.417725%)" offset="0.0234375"/><stop stop-opacity="1" stop-color="rgb(42.652893%, 16.192627%, 84.144592%)" offset="0.03125"/><stop stop-opacity="1" stop-color="rgb(42.625427%, 16.337585%, 83.87146%)" offset="0.0390625"/><stop stop-opacity="1" stop-color="rgb(42.597961%, 16.481018%, 83.599854%)" offset="0.046875"/><stop stop-opacity="1" stop-color="rgb(42.570496%, 16.624451%, 83.326721%)" offset="0.0546875"/><stop stop-opacity="1" stop-color="rgb(42.54303%, 16.769409%, 83.053589%)" offset="0.0625"/><stop stop-opacity="1" stop-color="rgb(42.514038%, 16.912842%, 82.780457%)" offset="0.0703125"/><stop stop-opacity="1" stop-color="rgb(42.486572%, 17.056274%, 82.50885%)" offset="0.078125"/><stop stop-opacity="1" stop-color="rgb(42.459106%, 17.201233%, 82.235718%)" offset="0.0859375"/><stop stop-opacity="1" stop-color="rgb(42.431641%, 17.344666%, 81.962585%)" offset="0.09375"/><stop stop-opacity="1" stop-color="rgb(42.404175%, 17.488098%, 81.690979%)" offset="0.101562"/><stop stop-opacity="1" stop-color="rgb(42.376709%, 17.633057%, 81.417847%)" offset="0.109375"/><stop stop-opacity="1" stop-color="rgb(42.349243%, 17.776489%, 81.144714%)" offset="0.117188"/><stop stop-opacity="1" stop-color="rgb(42.321777%, 17.921448%, 80.873108%)" offset="0.125"/><stop stop-opacity="1" stop-color="rgb(42.294312%, 18.06488%, 80.599976%)" offset="0.132812"/><stop stop-opacity="1" stop-color="rgb(42.266846%, 18.208313%, 80.326843%)" offset="0.140625"/><stop stop-opacity="1" stop-color="rgb(42.23938%, 18.353271%, 80.055237%)" offset="0.148438"/><stop stop-opacity="1" stop-color="rgb(42.211914%, 18.496704%, 79.782104%)" offset="0.15625"/><stop stop-opacity="1" stop-color="rgb(42.184448%, 18.640137%, 79.508972%)" offset="0.164062"/><stop stop-opacity="1" stop-color="rgb(42.156982%, 18.785095%, 79.237366%)" offset="0.171875"/><stop stop-opacity="1" stop-color="rgb(42.127991%, 18.928528%, 78.964233%)" offset="0.179688"/><stop stop-opacity="1" stop-color="rgb(42.100525%, 19.07196%, 78.691101%)" offset="0.1875"/><stop stop-opacity="1" stop-color="rgb(42.073059%, 19.216919%, 78.417969%)" offset="0.195312"/><stop stop-opacity="1" stop-color="rgb(42.045593%, 19.360352%, 78.146362%)" offset="0.203125"/><stop stop-opacity="1" stop-color="rgb(42.018127%, 19.50531%, 77.87323%)" offset="0.210938"/><stop stop-opacity="1" stop-color="rgb(41.990662%, 19.648743%, 77.600098%)" offset="0.21875"/><stop stop-opacity="1" stop-color="rgb(41.963196%, 19.792175%, 77.328491%)" offset="0.226562"/><stop stop-opacity="1" stop-color="rgb(41.93573%, 19.937134%, 77.055359%)" offset="0.234375"/><stop stop-opacity="1" stop-color="rgb(41.908264%, 20.080566%, 76.782227%)" offset="0.242188"/><stop stop-opacity="1" stop-color="rgb(41.880798%, 20.223999%, 76.51062%)" offset="0.25"/><stop stop-opacity="1" stop-color="rgb(41.853333%, 20.368958%, 76.237488%)" offset="0.257812"/><stop stop-opacity="1" stop-color="rgb(41.825867%, 20.51239%, 75.964355%)" offset="0.265625"/><stop stop-opacity="1" stop-color="rgb(41.798401%, 20.655823%, 75.692749%)" offset="0.273438"/><stop stop-opacity="1" stop-color="rgb(41.769409%, 20.800781%, 75.419617%)" offset="0.28125"/><stop stop-opacity="1" stop-color="rgb(41.741943%, 20.944214%, 75.146484%)" offset="0.289062"/><stop stop-opacity="1" stop-color="rgb(41.714478%, 21.087646%, 74.873352%)" offset="0.296875"/><stop stop-opacity="1" stop-color="rgb(41.687012%, 21.232605%, 74.601746%)" offset="0.304688"/><stop stop-opacity="1" stop-color="rgb(41.659546%, 21.376038%, 74.328613%)" offset="0.3125"/><stop stop-opacity="1" stop-color="rgb(41.63208%, 21.520996%, 74.055481%)" offset="0.320312"/><stop stop-opacity="1" stop-color="rgb(41.604614%, 21.664429%, 73.783875%)" offset="0.328125"/><stop stop-opacity="1" stop-color="rgb(41.577148%, 21.807861%, 73.510742%)" offset="0.335938"/><stop stop-opacity="1" stop-color="rgb(41.549683%, 21.95282%, 73.23761%)" offset="0.34375"/><stop stop-opacity="1" stop-color="rgb(41.522217%, 22.096252%, 72.966003%)" offset="0.351562"/><stop stop-opacity="1" stop-color="rgb(41.494751%, 22.239685%, 72.692871%)" offset="0.359375"/><stop stop-opacity="1" stop-color="rgb(41.467285%, 22.384644%, 72.419739%)" offset="0.367188"/><stop stop-opacity="1" stop-color="rgb(41.439819%, 22.528076%, 72.148132%)" offset="0.375"/><stop stop-opacity="1" stop-color="rgb(41.412354%, 22.671509%, 71.875%)" offset="0.382812"/><stop stop-opacity="1" stop-color="rgb(41.383362%, 22.816467%, 71.601868%)" offset="0.390625"/><stop stop-opacity="1" stop-color="rgb(41.355896%, 22.9599%, 71.330261%)" offset="0.398438"/><stop stop-opacity="1" stop-color="rgb(41.32843%, 23.104858%, 71.057129%)" offset="0.40625"/><stop stop-opacity="1" stop-color="rgb(41.300964%, 23.248291%, 70.783997%)" offset="0.414062"/><stop stop-opacity="1" stop-color="rgb(41.273499%, 23.391724%, 70.510864%)" offset="0.421875"/><stop stop-opacity="1" stop-color="rgb(41.246033%, 23.536682%, 70.239258%)" offset="0.429688"/><stop stop-opacity="1" stop-color="rgb(41.218567%, 23.680115%, 69.966125%)" offset="0.4375"/><stop stop-opacity="1" stop-color="rgb(41.191101%, 23.823547%, 69.692993%)" offset="0.445312"/><stop stop-opacity="1" stop-color="rgb(41.163635%, 23.968506%, 69.421387%)" offset="0.453125"/><stop stop-opacity="1" stop-color="rgb(41.136169%, 24.111938%, 69.148254%)" offset="0.460938"/><stop stop-opacity="1" stop-color="rgb(41.108704%, 24.255371%, 68.875122%)" offset="0.46875"/><stop stop-opacity="1" stop-color="rgb(41.081238%, 24.40033%, 68.603516%)" offset="0.476562"/><stop stop-opacity="1" stop-color="rgb(41.053772%, 24.543762%, 68.330383%)" offset="0.484375"/><stop stop-opacity="1" stop-color="rgb(41.026306%, 24.688721%, 68.057251%)" offset="0.492188"/><stop stop-opacity="1" stop-color="rgb(40.997314%, 24.832153%, 67.785645%)" offset="0.5"/><stop stop-opacity="1" stop-color="rgb(40.969849%, 24.975586%, 67.512512%)" offset="0.507812"/><stop stop-opacity="1" stop-color="rgb(40.942383%, 25.120544%, 67.23938%)" offset="0.515625"/><stop stop-opacity="1" stop-color="rgb(40.914917%, 25.263977%, 66.967773%)" offset="0.523438"/><stop stop-opacity="1" stop-color="rgb(40.887451%, 25.40741%, 66.694641%)" offset="0.53125"/><stop stop-opacity="1" stop-color="rgb(40.859985%, 25.552368%, 66.421509%)" offset="0.539062"/><stop stop-opacity="1" stop-color="rgb(40.83252%, 25.695801%, 66.148376%)" offset="0.546875"/><stop stop-opacity="1" stop-color="rgb(40.805054%, 25.839233%, 65.87677%)" offset="0.554688"/><stop stop-opacity="1" stop-color="rgb(40.777588%, 25.984192%, 65.603638%)" offset="0.5625"/><stop stop-opacity="1" stop-color="rgb(40.750122%, 26.127625%, 65.330505%)" offset="0.570312"/><stop stop-opacity="1" stop-color="rgb(40.722656%, 26.271057%, 65.058899%)" offset="0.578125"/><stop stop-opacity="1" stop-color="rgb(40.69519%, 26.416016%, 64.785767%)" offset="0.585938"/><stop stop-opacity="1" stop-color="rgb(40.667725%, 26.559448%, 64.512634%)" offset="0.59375"/><stop stop-opacity="1" stop-color="rgb(40.638733%, 26.704407%, 64.241028%)" offset="0.601562"/><stop stop-opacity="1" stop-color="rgb(40.611267%, 26.847839%, 63.967896%)" offset="0.609375"/><stop stop-opacity="1" stop-color="rgb(40.583801%, 26.991272%, 63.694763%)" offset="0.617188"/><stop stop-opacity="1" stop-color="rgb(40.556335%, 27.13623%, 63.423157%)" offset="0.625"/><stop stop-opacity="1" stop-color="rgb(40.52887%, 27.279663%, 63.150024%)" offset="0.632812"/><stop stop-opacity="1" stop-color="rgb(40.501404%, 27.423096%, 62.876892%)" offset="0.640625"/><stop stop-opacity="1" stop-color="rgb(40.473938%, 27.568054%, 62.605286%)" offset="0.648438"/><stop stop-opacity="1" stop-color="rgb(40.446472%, 27.711487%, 62.332153%)" offset="0.65625"/><stop stop-opacity="1" stop-color="rgb(40.419006%, 27.854919%, 62.059021%)" offset="0.664062"/><stop stop-opacity="1" stop-color="rgb(40.391541%, 27.999878%, 61.785889%)" offset="0.671875"/><stop stop-opacity="1" stop-color="rgb(40.364075%, 28.143311%, 61.514282%)" offset="0.679688"/><stop stop-opacity="1" stop-color="rgb(40.336609%, 28.288269%, 61.24115%)" offset="0.6875"/><stop stop-opacity="1" stop-color="rgb(40.309143%, 28.431702%, 60.968018%)" offset="0.695312"/><stop stop-opacity="1" stop-color="rgb(40.281677%, 28.575134%, 60.696411%)" offset="0.703125"/><stop stop-opacity="1" stop-color="rgb(40.252686%, 28.720093%, 60.423279%)" offset="0.710938"/><stop stop-opacity="1" stop-color="rgb(40.22522%, 28.863525%, 60.150146%)" offset="0.71875"/><stop stop-opacity="1" stop-color="rgb(40.197754%, 29.006958%, 59.87854%)" offset="0.726562"/><stop stop-opacity="1" stop-color="rgb(40.170288%, 29.151917%, 59.605408%)" offset="0.734375"/><stop stop-opacity="1" stop-color="rgb(40.142822%, 29.295349%, 59.332275%)" offset="0.742188"/><stop stop-opacity="1" stop-color="rgb(40.115356%, 29.438782%, 59.060669%)" offset="0.75"/><stop stop-opacity="1" stop-color="rgb(40.087891%, 29.58374%, 58.787537%)" offset="0.757812"/><stop stop-opacity="1" stop-color="rgb(40.060425%, 29.727173%, 58.514404%)" offset="0.765625"/><stop stop-opacity="1" stop-color="rgb(40.032959%, 29.872131%, 58.242798%)" offset="0.773438"/><stop stop-opacity="1" stop-color="rgb(40.005493%, 30.015564%, 57.969666%)" offset="0.78125"/><stop stop-opacity="1" stop-color="rgb(39.978027%, 30.158997%, 57.696533%)" offset="0.789062"/><stop stop-opacity="1" stop-color="rgb(39.950562%, 30.303955%, 57.423401%)" offset="0.796875"/><stop stop-opacity="1" stop-color="rgb(39.923096%, 30.447388%, 57.151794%)" offset="0.804688"/><stop stop-opacity="1" stop-color="rgb(39.894104%, 30.59082%, 56.878662%)" offset="0.8125"/><stop stop-opacity="1" stop-color="rgb(39.866638%, 30.735779%, 56.60553%)" offset="0.820312"/><stop stop-opacity="1" stop-color="rgb(39.839172%, 30.879211%, 56.333923%)" offset="0.828125"/><stop stop-opacity="1" stop-color="rgb(39.811707%, 31.022644%, 56.060791%)" offset="0.835938"/><stop stop-opacity="1" stop-color="rgb(39.784241%, 31.167603%, 55.787659%)" offset="0.84375"/><stop stop-opacity="1" stop-color="rgb(39.756775%, 31.311035%, 55.516052%)" offset="0.851562"/><stop stop-opacity="1" stop-color="rgb(39.729309%, 31.455994%, 55.24292%)" offset="0.859375"/><stop stop-opacity="1" stop-color="rgb(39.701843%, 31.599426%, 54.969788%)" offset="0.867188"/><stop stop-opacity="1" stop-color="rgb(39.674377%, 31.742859%, 54.698181%)" offset="0.875"/><stop stop-opacity="1" stop-color="rgb(39.646912%, 31.887817%, 54.425049%)" offset="0.882812"/><stop stop-opacity="1" stop-color="rgb(39.619446%, 32.03125%, 54.151917%)" offset="0.890625"/><stop stop-opacity="1" stop-color="rgb(39.59198%, 32.174683%, 53.88031%)" offset="0.898438"/><stop stop-opacity="1" stop-color="rgb(39.564514%, 32.319641%, 53.607178%)" offset="0.90625"/><stop stop-opacity="1" stop-color="rgb(39.537048%, 32.463074%, 53.334045%)" offset="0.914062"/><stop stop-opacity="1" stop-color="rgb(39.508057%, 32.606506%, 53.060913%)" offset="0.921875"/><stop stop-opacity="1" stop-color="rgb(39.480591%, 32.751465%, 52.789307%)" offset="0.929688"/><stop stop-opacity="1" stop-color="rgb(39.453125%, 32.894897%, 52.516174%)" offset="0.9375"/><stop stop-opacity="1" stop-color="rgb(39.425659%, 33.03833%, 52.243042%)" offset="0.945312"/><stop stop-opacity="1" stop-color="rgb(39.398193%, 33.183289%, 51.971436%)" offset="0.953125"/><stop stop-opacity="1" stop-color="rgb(39.370728%, 33.326721%, 51.698303%)" offset="0.960938"/><stop stop-opacity="1" stop-color="rgb(39.343262%, 33.47168%, 51.425171%)" offset="0.96875"/><stop stop-opacity="1" stop-color="rgb(39.315796%, 33.615112%, 51.153564%)" offset="0.976562"/><stop stop-opacity="1" stop-color="rgb(39.28833%, 33.758545%, 50.880432%)" offset="0.984375"/><stop stop-opacity="1" stop-color="rgb(39.260864%, 33.903503%, 50.6073%)" offset="0.992188"/><stop stop-opacity="1" stop-color="rgb(39.233398%, 34.046936%, 50.335693%)" offset="1"/></linearGradient><clipPath id="9e2f547341"><rect x="0" width="293" y="0" height="293"/></clipPath><clipPath id="93a3c8eddb"><path d="M 41.183594 41.039062 L 333.207031 41.039062 L 333.207031 333.0625 L 41.183594 333.0625 Z M 41.183594 41.039062 " clip-rule="nonzero"/></clipPath><clipPath id="1627896c21"><path d="M 333.207031 86.039062 L 333.207031 288.0625 C 333.207031 299.996094 328.46875 311.445312 320.027344 319.882812 C 311.589844 328.320312 300.144531 333.0625 288.207031 333.0625 L 86.183594 333.0625 C 74.25 333.0625 62.804688 328.320312 54.363281 319.882812 C 45.925781 311.445312 41.183594 299.996094 41.183594 288.0625 L 41.183594 86.039062 C 41.183594 74.105469 45.925781 62.65625 54.363281 54.21875 C 62.804688 45.78125 74.25 41.039062 86.183594 41.039062 L 288.207031 41.039062 C 300.144531 41.039062 311.589844 45.78125 320.027344 54.21875 C 328.46875 62.65625 333.207031 74.105469 333.207031 86.039062 Z M 333.207031 86.039062 " clip-rule="nonzero"/></clipPath><clipPath id="f9e0a3e098"><path d="M 0.183594 0.0390625 L 292.207031 0.0390625 L 292.207031 292.0625 L 0.183594 292.0625 Z M 0.183594 0.0390625 " clip-rule="nonzero"/></clipPath><clipPath id="c6e2a0c87d"><path d="M 292.207031 45.039062 L 292.207031 247.0625 C 292.207031 258.996094 287.46875 270.445312 279.027344 278.882812 C 270.589844 287.320312 259.144531 292.0625 247.207031 292.0625 L 45.183594 292.0625 C 33.25 292.0625 21.804688 287.320312 13.363281 278.882812 C 4.925781 270.445312 0.183594 258.996094 0.183594 247.0625 L 0.183594 45.039062 C 0.183594 33.105469 4.925781 21.65625 13.363281 13.21875 C 21.804688 4.78125 33.25 0.0390625 45.183594 0.0390625 L 247.207031 0.0390625 C 259.144531 0.0390625 270.589844 4.78125 279.027344 13.21875 C 287.46875 21.65625 292.207031 33.105469 292.207031 45.039062 Z M 292.207031 45.039062 " clip-rule="nonzero"/></clipPath><clipPath id="28f8dab07a"><rect x="0" width="293" y="0" height="293"/></clipPath><clipPath id="284f50b106"><path d="M 39.386719 39.242188 L 331.410156 39.242188 L 331.410156 331.265625 L 39.386719 331.265625 Z M 39.386719 39.242188 " clip-rule="nonzero"/></clipPath><clipPath id="867e597a90"><path d="M 331.410156 84.242188 L 331.410156 286.265625 C 331.410156 298.199219 326.671875 309.648438 318.230469 318.085938 C 309.792969 326.523438 298.347656 331.265625 286.410156 331.265625 L 84.386719 331.265625 C 72.453125 331.265625 61.007812 326.523438 52.566406 318.085938 C 44.128906 309.648438 39.386719 298.199219 39.386719 286.265625 L 39.386719 84.242188 C 39.386719 72.308594 44.128906 60.859375 52.566406 52.421875 C 61.007812 43.984375 72.453125 39.242188 84.386719 39.242188 L 286.410156 39.242188 C 298.347656 39.242188 309.792969 43.984375 318.230469 52.421875 C 326.671875 60.859375 331.410156 72.308594 331.410156 84.242188 Z M 331.410156 84.242188 " clip-rule="nonzero"/></clipPath><clipPath id="b14d1306bd"><path d="M 0.386719 0.242188 L 292.410156 0.242188 L 292.410156 292.265625 L 0.386719 292.265625 Z M 0.386719 0.242188 " clip-rule="nonzero"/></clipPath><clipPath id="4fe2a87415"><path d="M 292.410156 45.242188 L 292.410156 247.265625 C 292.410156 259.199219 287.671875 270.648438 279.230469 279.085938 C 270.792969 287.523438 259.347656 292.265625 247.410156 292.265625 L 45.386719 292.265625 C 33.453125 292.265625 22.007812 287.523438 13.566406 279.085938 C 5.128906 270.648438 0.386719 259.199219 0.386719 247.265625 L 0.386719 45.242188 C 0.386719 33.308594 5.128906 21.859375 13.566406 13.421875 C 22.007812 4.984375 33.453125 0.242188 45.386719 0.242188 L 247.410156 0.242188 C 259.347656 0.242188 270.792969 4.984375 279.230469 13.421875 C 287.671875 21.859375 292.410156 33.308594 292.410156 45.242188 Z M 292.410156 45.242188 " clip-rule="nonzero"/></clipPath><linearGradient x1="0" gradientTransform="matrix(1.140721, 0, 0, 1.140721, 0.386966, 0.241404)" y1="128" x2="255.999991" gradientUnits="userSpaceOnUse" y2="128" id="0c486746f7"><stop stop-opacity="1" stop-color="rgb(42.749023%, 15.689087%, 85.099792%)" offset="0"/><stop stop-opacity="1" stop-color="rgb(42.735291%, 15.760803%, 84.962463%)" offset="0.0078125"/><stop stop-opacity="1" stop-color="rgb(42.707825%, 15.904236%, 84.689331%)" offset="0.015625"/><stop stop-opacity="1" stop-color="rgb(42.680359%, 16.049194%, 84.417725%)" offset="0.0234375"/><stop stop-opacity="1" stop-color="rgb(42.652893%, 16.192627%, 84.144592%)" offset="0.03125"/><stop stop-opacity="1" stop-color="rgb(42.625427%, 16.337585%, 83.87146%)" offset="0.0390625"/><stop stop-opacity="1" stop-color="rgb(42.597961%, 16.481018%, 83.599854%)" offset="0.046875"/><stop stop-opacity="1" stop-color="rgb(42.570496%, 16.624451%, 83.326721%)" offset="0.0546875"/><stop stop-opacity="1" stop-color="rgb(42.54303%, 16.769409%, 83.053589%)" offset="0.0625"/><stop stop-opacity="1" stop-color="rgb(42.514038%, 16.912842%, 82.780457%)" offset="0.0703125"/><stop stop-opacity="1" stop-color="rgb(42.486572%, 17.056274%, 82.50885%)" offset="0.078125"/><stop stop-opacity="1" stop-color="rgb(42.459106%, 17.201233%, 82.235718%)" offset="0.0859375"/><stop stop-opacity="1" stop-color="rgb(42.431641%, 17.344666%, 81.962585%)" offset="0.09375"/><stop stop-opacity="1" stop-color="rgb(42.404175%, 17.488098%, 81.690979%)" offset="0.101562"/><stop stop-opacity="1" stop-color="rgb(42.376709%, 17.633057%, 81.417847%)" offset="0.109375"/><stop stop-opacity="1" stop-color="rgb(42.349243%, 17.776489%, 81.144714%)" offset="0.117187"/><stop stop-opacity="1" stop-color="rgb(42.321777%, 17.921448%, 80.873108%)" offset="0.125"/><stop stop-opacity="1" stop-color="rgb(42.294312%, 18.06488%, 80.599976%)" offset="0.132812"/><stop stop-opacity="1" stop-color="rgb(42.266846%, 18.208313%, 80.326843%)" offset="0.140625"/><stop stop-opacity="1" stop-color="rgb(42.23938%, 18.353271%, 80.055237%)" offset="0.148438"/><stop stop-opacity="1" stop-color="rgb(42.211914%, 18.496704%, 79.782104%)" offset="0.15625"/><stop stop-opacity="1" stop-color="rgb(42.184448%, 18.640137%, 79.508972%)" offset="0.164063"/><stop stop-opacity="1" stop-color="rgb(42.156982%, 18.785095%, 79.237366%)" offset="0.171875"/><stop stop-opacity="1" stop-color="rgb(42.127991%, 18.928528%, 78.964233%)" offset="0.179688"/><stop stop-opacity="1" stop-color="rgb(42.100525%, 19.07196%, 78.691101%)" offset="0.1875"/><stop stop-opacity="1" stop-color="rgb(42.073059%, 19.216919%, 78.417969%)" offset="0.195312"/><stop stop-opacity="1" stop-color="rgb(42.045593%, 19.360352%, 78.146362%)" offset="0.203125"/><stop stop-opacity="1" stop-color="rgb(42.018127%, 19.503784%, 77.87323%)" offset="0.210938"/><stop stop-opacity="1" stop-color="rgb(41.990662%, 19.648743%, 77.600098%)" offset="0.21875"/><stop stop-opacity="1" stop-color="rgb(41.963196%, 19.792175%, 77.328491%)" offset="0.226562"/><stop stop-opacity="1" stop-color="rgb(41.93573%, 19.937134%, 77.055359%)" offset="0.234375"/><stop stop-opacity="1" stop-color="rgb(41.908264%, 20.080566%, 76.782227%)" offset="0.242187"/><stop stop-opacity="1" stop-color="rgb(41.880798%, 20.223999%, 76.51062%)" offset="0.25"/><stop stop-opacity="1" stop-color="rgb(41.853333%, 20.368958%, 76.237488%)" offset="0.257812"/><stop stop-opacity="1" stop-color="rgb(41.825867%, 20.51239%, 75.964355%)" offset="0.265625"/><stop stop-opacity="1" stop-color="rgb(41.798401%, 20.655823%, 75.692749%)" offset="0.273438"/><stop stop-opacity="1" stop-color="rgb(41.769409%, 20.800781%, 75.419617%)" offset="0.28125"/><stop stop-opacity="1" stop-color="rgb(41.741943%, 20.944214%, 75.146484%)" offset="0.289062"/><stop stop-opacity="1" stop-color="rgb(41.714478%, 21.087646%, 74.873352%)" offset="0.296875"/><stop stop-opacity="1" stop-color="rgb(41.687012%, 21.232605%, 74.601746%)" offset="0.304688"/><stop stop-opacity="1" stop-color="rgb(41.659546%, 21.376038%, 74.328613%)" offset="0.3125"/><stop stop-opacity="1" stop-color="rgb(41.63208%, 21.520996%, 74.055481%)" offset="0.320313"/><stop stop-opacity="1" stop-color="rgb(41.604614%, 21.664429%, 73.783875%)" offset="0.328125"/><stop stop-opacity="1" stop-color="rgb(41.577148%, 21.807861%, 73.510742%)" offset="0.335938"/><stop stop-opacity="1" stop-color="rgb(41.549683%, 21.95282%, 73.23761%)" offset="0.34375"/><stop stop-opacity="1" stop-color="rgb(41.522217%, 22.096252%, 72.966003%)" offset="0.351562"/><stop stop-opacity="1" stop-color="rgb(41.494751%, 22.239685%, 72.692871%)" offset="0.359375"/><stop stop-opacity="1" stop-color="rgb(41.467285%, 22.384644%, 72.419739%)" offset="0.367188"/><stop stop-opacity="1" stop-color="rgb(41.439819%, 22.528076%, 72.148132%)" offset="0.375"/><stop stop-opacity="1" stop-color="rgb(41.412354%, 22.671509%, 71.875%)" offset="0.382812"/><stop stop-opacity="1" stop-color="rgb(41.383362%, 22.816467%, 71.601868%)" offset="0.390625"/><stop stop-opacity="1" stop-color="rgb(41.355896%, 22.9599%, 71.330261%)" offset="0.398438"/><stop stop-opacity="1" stop-color="rgb(41.32843%, 23.104858%, 71.057129%)" offset="0.40625"/><stop stop-opacity="1" stop-color="rgb(41.300964%, 23.248291%, 70.783997%)" offset="0.414062"/><stop stop-opacity="1" stop-color="rgb(41.273499%, 23.391724%, 70.510864%)" offset="0.421875"/><stop stop-opacity="1" stop-color="rgb(41.246033%, 23.536682%, 70.239258%)" offset="0.429688"/><stop stop-opacity="1" stop-color="rgb(41.218567%, 23.680115%, 69.966125%)" offset="0.4375"/><stop stop-opacity="1" stop-color="rgb(41.191101%, 23.823547%, 69.692993%)" offset="0.445312"/><stop stop-opacity="1" stop-color="rgb(41.163635%, 23.968506%, 69.421387%)" offset="0.453125"/><stop stop-opacity="1" stop-color="rgb(41.136169%, 24.111938%, 69.148254%)" offset="0.460937"/><stop stop-opacity="1" stop-color="rgb(41.108704%, 24.255371%, 68.875122%)" offset="0.46875"/><stop stop-opacity="1" stop-color="rgb(41.081238%, 24.40033%, 68.603516%)" offset="0.476562"/><stop stop-opacity="1" stop-color="rgb(41.053772%, 24.543762%, 68.330383%)" offset="0.484375"/><stop stop-opacity="1" stop-color="rgb(41.026306%, 24.688721%, 68.057251%)" offset="0.492187"/><stop stop-opacity="1" stop-color="rgb(40.997314%, 24.832153%, 67.785645%)" offset="0.5"/><stop stop-opacity="1" stop-color="rgb(40.969849%, 24.975586%, 67.512512%)" offset="0.507812"/><stop stop-opacity="1" stop-color="rgb(40.942383%, 25.120544%, 67.23938%)" offset="0.515625"/><stop stop-opacity="1" stop-color="rgb(40.914917%, 25.263977%, 66.967773%)" offset="0.523438"/><stop stop-opacity="1" stop-color="rgb(40.887451%, 25.40741%, 66.694641%)" offset="0.53125"/><stop stop-opacity="1" stop-color="rgb(40.859985%, 25.552368%, 66.421509%)" offset="0.539062"/><stop stop-opacity="1" stop-color="rgb(40.83252%, 25.695801%, 66.148376%)" offset="0.546875"/><stop stop-opacity="1" stop-color="rgb(40.805054%, 25.839233%, 65.87677%)" offset="0.554688"/><stop stop-opacity="1" stop-color="rgb(40.777588%, 25.984192%, 65.603638%)" offset="0.5625"/><stop stop-opacity="1" stop-color="rgb(40.750122%, 26.127625%, 65.330505%)" offset="0.570312"/><stop stop-opacity="1" stop-color="rgb(40.722656%, 26.271057%, 65.058899%)" offset="0.578125"/><stop stop-opacity="1" stop-color="rgb(40.69519%, 26.416016%, 64.785767%)" offset="0.585938"/><stop stop-opacity="1" stop-color="rgb(40.667725%, 26.559448%, 64.512634%)" offset="0.59375"/><stop stop-opacity="1" stop-color="rgb(40.638733%, 26.704407%, 64.241028%)" offset="0.601562"/><stop stop-opacity="1" stop-color="rgb(40.611267%, 26.847839%, 63.967896%)" offset="0.609375"/><stop stop-opacity="1" stop-color="rgb(40.583801%, 26.991272%, 63.694763%)" offset="0.617188"/><stop stop-opacity="1" stop-color="rgb(40.556335%, 27.13623%, 63.423157%)" offset="0.625"/><stop stop-opacity="1" stop-color="rgb(40.52887%, 27.279663%, 63.150024%)" offset="0.632813"/><stop stop-opacity="1" stop-color="rgb(40.501404%, 27.423096%, 62.876892%)" offset="0.640625"/><stop stop-opacity="1" stop-color="rgb(40.473938%, 27.568054%, 62.605286%)" offset="0.648438"/><stop stop-opacity="1" stop-color="rgb(40.446472%, 27.711487%, 62.332153%)" offset="0.65625"/><stop stop-opacity="1" stop-color="rgb(40.419006%, 27.854919%, 62.059021%)" offset="0.664063"/><stop stop-opacity="1" stop-color="rgb(40.391541%, 27.999878%, 61.785889%)" offset="0.671875"/><stop stop-opacity="1" stop-color="rgb(40.364075%, 28.143311%, 61.514282%)" offset="0.679688"/><stop stop-opacity="1" stop-color="rgb(40.336609%, 28.288269%, 61.24115%)" offset="0.6875"/><stop stop-opacity="1" stop-color="rgb(40.309143%, 28.431702%, 60.968018%)" offset="0.695313"/><stop stop-opacity="1" stop-color="rgb(40.281677%, 28.575134%, 60.696411%)" offset="0.703125"/><stop stop-opacity="1" stop-color="rgb(40.252686%, 28.720093%, 60.423279%)" offset="0.710938"/><stop stop-opacity="1" stop-color="rgb(40.22522%, 28.863525%, 60.150146%)" offset="0.71875"/><stop stop-opacity="1" stop-color="rgb(40.197754%, 29.006958%, 59.87854%)" offset="0.726562"/><stop stop-opacity="1" stop-color="rgb(40.170288%, 29.151917%, 59.605408%)" offset="0.734375"/><stop stop-opacity="1" stop-color="rgb(40.142822%, 29.295349%, 59.332275%)" offset="0.742188"/><stop stop-opacity="1" stop-color="rgb(40.115356%, 29.438782%, 59.060669%)" offset="0.75"/><stop stop-opacity="1" stop-color="rgb(40.087891%, 29.58374%, 58.787537%)" offset="0.757812"/><stop stop-opacity="1" stop-color="rgb(40.060425%, 29.727173%, 58.514404%)" offset="0.765625"/><stop stop-opacity="1" stop-color="rgb(40.032959%, 29.872131%, 58.242798%)" offset="0.773438"/><stop stop-opacity="1" stop-color="rgb(40.005493%, 30.015564%, 57.969666%)" offset="0.78125"/><stop stop-opacity="1" stop-color="rgb(39.978027%, 30.158997%, 57.696533%)" offset="0.789062"/><stop stop-opacity="1" stop-color="rgb(39.950562%, 30.303955%, 57.423401%)" offset="0.796875"/><stop stop-opacity="1" stop-color="rgb(39.923096%, 30.447388%, 57.151794%)" offset="0.804688"/><stop stop-opacity="1" stop-color="rgb(39.894104%, 30.59082%, 56.878662%)" offset="0.8125"/><stop stop-opacity="1" stop-color="rgb(39.866638%, 30.735779%, 56.60553%)" offset="0.820312"/><stop stop-opacity="1" stop-color="rgb(39.839172%, 30.879211%, 56.333923%)" offset="0.828125"/><stop stop-opacity="1" stop-color="rgb(39.811707%, 31.022644%, 56.060791%)" offset="0.835938"/><stop stop-opacity="1" stop-color="rgb(39.784241%, 31.167603%, 55.787659%)" offset="0.84375"/><stop stop-opacity="1" stop-color="rgb(39.756775%, 31.311035%, 55.516052%)" offset="0.851562"/><stop stop-opacity="1" stop-color="rgb(39.729309%, 31.455994%, 55.24292%)" offset="0.859375"/><stop stop-opacity="1" stop-color="rgb(39.701843%, 31.599426%, 54.969788%)" offset="0.867188"/><stop stop-opacity="1" stop-color="rgb(39.674377%, 31.742859%, 54.698181%)" offset="0.875"/><stop stop-opacity="1" stop-color="rgb(39.646912%, 31.887817%, 54.425049%)" offset="0.882812"/><stop stop-opacity="1" stop-color="rgb(39.619446%, 32.03125%, 54.151917%)" offset="0.890625"/><stop stop-opacity="1" stop-color="rgb(39.59198%, 32.174683%, 53.88031%)" offset="0.898438"/><stop stop-opacity="1" stop-color="rgb(39.564514%, 32.319641%, 53.607178%)" offset="0.90625"/><stop stop-opacity="1" stop-color="rgb(39.537048%, 32.463074%, 53.334045%)" offset="0.914062"/><stop stop-opacity="1" stop-color="rgb(39.508057%, 32.606506%, 53.060913%)" offset="0.921875"/><stop stop-opacity="1" stop-color="rgb(39.480591%, 32.751465%, 52.789307%)" offset="0.929687"/><stop stop-opacity="1" stop-color="rgb(39.453125%, 32.894897%, 52.516174%)" offset="0.9375"/><stop stop-opacity="1" stop-color="rgb(39.425659%, 33.03833%, 52.243042%)" offset="0.945312"/><stop stop-opacity="1" stop-color="rgb(39.398193%, 33.183289%, 51.971436%)" offset="0.953125"/><stop stop-opacity="1" stop-color="rgb(39.370728%, 33.326721%, 51.698303%)" offset="0.960937"/><stop stop-opacity="1" stop-color="rgb(39.343262%, 33.47168%, 51.425171%)" offset="0.96875"/><stop stop-opacity="1" stop-color="rgb(39.315796%, 33.615112%, 51.153564%)" offset="0.976562"/><stop stop-opacity="1" stop-color="rgb(39.28833%, 33.758545%, 50.880432%)" offset="0.984375"/><stop stop-opacity="1" stop-color="rgb(39.260864%, 33.903503%, 50.6073%)" offset="0.992187"/><stop stop-opacity="1" stop-color="rgb(39.233398%, 34.046936%, 50.335693%)" offset="1"/></linearGradient><clipPath id="daa6e35574"><rect x="0" width="293" y="0" height="293"/></clipPath><clipPath id="16aafa4617"><path d="M 22 83 L 228.871094 83 L 228.871094 223 L 22 223 Z M 22 83 " clip-rule="nonzero"/></clipPath><clipPath id="984271486c"><path d="M 22 155 L 111 155 L 111 264.988281 L 22 264.988281 Z M 22 155 " clip-rule="nonzero"/></clipPath><clipPath id="913eda9e42"><path d="M 73 0.0390625 L 112 0.0390625 L 112 97 L 73 97 Z M 73 0.0390625 " clip-rule="nonzero"/></clipPath><clipPath id="02baf8d14c"><rect x="0" width="230" y="0" height="265"/></clipPath></defs><g clip-path="url(#2946fecf32)"><g clip-path="url(#b4fa09d458)"><g transform="matrix(1, 0, 0, 1, 43, 43)"><g clip-path="url(#9e2f547341)"><g clip-path="url(#fc3b9c6244)"><g clip-path="url(#d934207dc1)"><path fill="url(#0d4fe71e78)" d="M 0.589844 0.734375 L 0.589844 292.757812 L 292.613281 292.757812 L 292.613281 0.734375 Z M 0.589844 0.734375 " fill-rule="nonzero"/></g></g></g></g></g></g><g clip-path="url(#93a3c8eddb)"><g clip-path="url(#1627896c21)"><g transform="matrix(1, 0, 0, 1, 41, 41)"><g clip-path="url(#28f8dab07a)"><g clip-path="url(#f9e0a3e098)"><g clip-path="url(#c6e2a0c87d)"><path fill="#f4efff" d="M 0.183594 0.0390625 L 292.207031 0.0390625 L 292.207031 292.0625 L 0.183594 292.0625 Z M 0.183594 0.0390625 " fill-opacity="1" fill-rule="nonzero"/></g></g></g></g></g></g><g clip-path="url(#284f50b106)"><g clip-path="url(#867e597a90)"><g transform="matrix(1, 0, 0, 1, 39, 39)"><g clip-path="url(#daa6e35574)"><g clip-path="url(#b14d1306bd)"><g clip-path="url(#4fe2a87415)"><path fill="url(#0c486746f7)" d="M 0.386719 0.242188 L 0.386719 292.265625 L 292.410156 292.265625 L 292.410156 0.242188 Z M 0.386719 0.242188 " fill-rule="nonzero"/></g></g></g></g></g></g><g transform="matrix(1, 0, 0, 1, 76, 59)"><g clip-path="url(#02baf8d14c)"><path fill="#f4efff" d="M 216.332031 213.382812 C 211.992188 213.382812 196.488281 211.519531 177.574219 187.488281 C 175.09375 184.234375 179.898438 180.359375 182.378906 183.613281 C 207.1875 214.933594 219.433594 202.996094 220.210938 209.816406 C 220.363281 212.140625 218.816406 213.382812 216.332031 213.382812 Z M 216.332031 213.382812 " fill-opacity="1" fill-rule="evenodd"/><g clip-path="url(#16aafa4617)"><path fill="#f4efff" d="M 196.023438 222.0625 C 184.707031 222.0625 174.316406 216.328125 168.269531 207.023438 C 138.191406 215.085938 116.023438 212.917969 102.535156 200.667969 C 83.308594 183.304688 88.425781 152.914062 88.734375 151.675781 C 89.511719 147.644531 95.554688 148.730469 94.78125 152.761719 C 94.78125 153.070312 90.128906 181.132812 106.71875 196.015625 C 118.96875 207.179688 139.898438 208.574219 168.890625 200.359375 C 170.285156 199.894531 171.835938 200.667969 172.457031 201.910156 C 185.636719 226.09375 222.84375 216.792969 222.84375 189.039062 C 222.84375 169.503906 205.792969 166.25 192.300781 151.984375 L 150.441406 107.332031 C 114.625 74.464844 92.457031 96.324219 91.527344 97.257812 L 27.957031 160.667969 C 25.167969 163.613281 20.671875 159.273438 23.617188 156.328125 L 87.027344 92.914062 C 87.339844 92.605469 114.160156 65.628906 154.78125 102.992188 C 158.96875 106.867188 190.285156 140.667969 196.796875 147.800781 C 209.820312 161.753906 229.046875 165.785156 229.046875 189.039062 C 229.046875 207.335938 214.164062 222.0625 196.023438 222.0625 Z M 196.023438 222.0625 " fill-opacity="1" fill-rule="evenodd"/></g><g clip-path="url(#984271486c)"><path fill="#f4efff" d="M 59.742188 264.855469 C 39.277344 264.855469 27.804688 222.996094 22.6875 158.808594 C 22.378906 154.777344 28.578125 154.15625 28.890625 158.34375 C 35.246094 239.585938 49.507812 255.707031 57.261719 258.1875 C 63.308594 260.050781 68.425781 254.46875 69.042969 253.691406 L 104.550781 198.808594 C 106.875 195.398438 111.992188 198.808594 109.820312 202.21875 L 74.003906 257.414062 C 73.695312 257.878906 67.960938 264.855469 59.742188 264.855469 Z M 59.742188 264.855469 " fill-opacity="1" fill-rule="evenodd"/></g><g clip-path="url(#913eda9e42)"><path fill="#f4efff" d="M 90.59375 96.945312 C 89.511719 96.945312 88.578125 96.480469 87.960938 95.550781 C 86.71875 93.691406 58.65625 49.191406 83.929688 14.152344 C 96.175781 -2.589844 111.679688 -7.863281 108.734375 19.113281 C 106.097656 45.160156 109.664062 74.621094 111.371094 86.09375 C 112.144531 91.828125 103.152344 87.644531 92.609375 96.324219 C 91.992188 96.789062 91.371094 96.945312 90.59375 96.945312 Z M 101.757812 6.402344 C 99.121094 6.402344 93.074219 12.292969 88.890625 17.875 C 69.507812 44.695312 85.945312 79.269531 91.527344 89.347656 C 94.625 87.332031 98.96875 85.164062 104.703125 83.921875 C 103 70.742188 100.054688 43.144531 102.535156 18.496094 C 103.773438 7.953125 101.757812 6.402344 101.757812 6.402344 Z M 101.757812 6.402344 " fill-opacity="1" fill-rule="evenodd"/></g><path fill="#f4efff" d="M 137.261719 96.636719 C 134.472656 96.636719 125.480469 88.574219 110.90625 89.347656 C 108.734375 89.503906 107.183594 87.488281 107.648438 85.472656 C 107.804688 84.851562 123.773438 25.472656 182.84375 10.742188 C 184.859375 10.277344 186.875 11.828125 186.722656 14 C 186.566406 16.324219 182.84375 70.742188 138.8125 96.171875 C 138.191406 96.480469 137.726562 96.636719 137.261719 96.636719 Z M 114.9375 83.148438 C 122.222656 83.613281 129.664062 85.78125 137.109375 89.96875 C 170.132812 69.8125 178.195312 31.054688 180.054688 18.03125 C 136.332031 31.054688 119.277344 70.589844 114.9375 83.148438 Z M 114.9375 83.148438 " fill-opacity="1" fill-rule="evenodd"/><path fill="#f4efff" d="M 134.160156 148.574219 C 120.984375 148.574219 109.664062 138.808594 107.960938 125.472656 C 106.875 116.792969 143 115.707031 146.410156 143.304688 C 147.03125 147.953125 136.953125 148.574219 134.160156 148.574219 Z M 114.625 127.023438 C 117.261719 138.34375 128.890625 144.855469 139.742188 141.597656 C 137.109375 130.433594 125.480469 123.921875 114.625 127.023438 Z M 114.625 127.023438 " fill-opacity="1" fill-rule="evenodd"/><path fill="#f4efff" d="M 212.769531 202.839844 C 202.691406 202.839844 202.691406 182.21875 212.769531 182.21875 C 222.84375 182.21875 222.84375 202.839844 212.769531 202.839844 Z M 212.769531 188.421875 C 211.21875 189.195312 210.90625 195.550781 212.769531 196.636719 C 214.785156 195.550781 214.472656 188.886719 212.769531 188.421875 Z M 212.769531 188.421875 " fill-opacity="1" fill-rule="evenodd"/><path fill="#f4efff" d="M 124.550781 91.054688 C 122.535156 91.054688 120.984375 89.195312 121.449219 87.332031 C 126.566406 62.992188 179.277344 13.535156 181.605469 11.519531 C 184.550781 8.726562 188.738281 13.222656 185.789062 16.015625 C 185.171875 16.480469 132.300781 66.246094 127.496094 88.574219 C 127.183594 90.125 125.945312 91.054688 124.550781 91.054688 Z M 124.550781 91.054688 " fill-opacity="1" fill-rule="evenodd"/><g fill="#f4efff" fill-opacity="1"><g transform="translate(21.140804, 160.15255)"><g><path d="M 1.953125 -23.734375 C 3.660156 -22.128906 5.359375 -20.519531 7.046875 -18.90625 C 8.734375 -17.289062 10.425781 -15.675781 12.125 -14.0625 C 12.625 -13.601562 12.894531 -13.101562 12.9375 -12.5625 C 12.976562 -12.019531 12.859375 -11.519531 12.578125 -11.0625 C 12.304688 -10.613281 11.9375 -10.253906 11.46875 -9.984375 C 11 -9.710938 10.492188 -9.585938 9.953125 -9.609375 C 9.421875 -9.640625 8.90625 -9.882812 8.40625 -10.34375 C 7.882812 -10.820312 7.375 -11.304688 6.875 -11.796875 C 6.375 -12.285156 5.867188 -12.765625 5.359375 -13.234375 L 1.515625 -9.640625 C 1.984375 -8.898438 2.472656 -8.15625 2.984375 -7.40625 C 3.503906 -6.664062 4.019531 -5.925781 4.53125 -5.1875 C 4.914062 -4.632812 5.066406 -4.101562 4.984375 -3.59375 C 4.910156 -3.09375 4.6875 -2.65625 4.3125 -2.28125 C 3.9375 -1.90625 3.476562 -1.644531 2.9375 -1.5 C 2.40625 -1.363281 1.867188 -1.375 1.328125 -1.53125 C 0.785156 -1.6875 0.328125 -2.035156 -0.046875 -2.578125 C -1.367188 -4.503906 -2.632812 -6.441406 -3.84375 -8.390625 C -5.0625 -10.347656 -6.085938 -12.421875 -6.921875 -14.609375 C -7.328125 -15.679688 -7.707031 -16.90625 -8.0625 -18.28125 C -8.414062 -19.65625 -8.625 -21.023438 -8.6875 -22.390625 C -8.75 -23.753906 -8.554688 -25.015625 -8.109375 -26.171875 C -7.679688 -27.222656 -7.132812 -27.878906 -6.46875 -28.140625 C -5.8125 -28.410156 -5.085938 -28.414062 -4.296875 -28.15625 C -3.515625 -27.90625 -2.734375 -27.507812 -1.953125 -26.96875 C -1.171875 -26.425781 -0.4375 -25.851562 0.25 -25.25 C 0.945312 -24.65625 1.515625 -24.148438 1.953125 -23.734375 Z M -1.421875 -14.921875 C -1.367188 -14.828125 -1.316406 -14.734375 -1.265625 -14.640625 C -1.222656 -14.554688 -1.191406 -14.460938 -1.171875 -14.359375 C -0.703125 -14.785156 -0.242188 -15.207031 0.203125 -15.625 C 0.648438 -16.039062 1.09375 -16.457031 1.53125 -16.875 C 0.988281 -17.394531 0.445312 -17.910156 -0.09375 -18.421875 C -0.644531 -18.941406 -1.203125 -19.472656 -1.765625 -20.015625 C -1.992188 -20.222656 -2.226562 -20.445312 -2.46875 -20.6875 C -2.707031 -20.925781 -2.953125 -21.171875 -3.203125 -21.421875 C -3.148438 -20.804688 -3.0625 -20.238281 -2.9375 -19.71875 C -2.78125 -18.894531 -2.570312 -18.082031 -2.3125 -17.28125 C -2.050781 -16.476562 -1.753906 -15.691406 -1.421875 -14.921875 Z M -1.421875 -14.921875 "/></g></g></g><g fill="#f4efff" fill-opacity="1"><g transform="translate(35.478579, 145.814775)"><g><path d="M -4.109375 -25.953125 C -4.503906 -26.472656 -4.671875 -26.984375 -4.609375 -27.484375 C -4.546875 -27.984375 -4.328125 -28.414062 -3.953125 -28.78125 C -3.585938 -29.15625 -3.128906 -29.414062 -2.578125 -29.5625 C -2.035156 -29.71875 -1.488281 -29.71875 -0.9375 -29.5625 C -0.394531 -29.414062 0.0664062 -29.078125 0.453125 -28.546875 C 4.347656 -23.296875 8.039062 -17.914062 11.53125 -12.40625 C 11.8125 -11.976562 11.925781 -11.503906 11.875 -10.984375 C 11.820312 -10.460938 11.628906 -9.976562 11.296875 -9.53125 C 10.972656 -9.09375 10.570312 -8.773438 10.09375 -8.578125 C 9.613281 -8.378906 9.109375 -8.378906 8.578125 -8.578125 C 7.296875 -9.109375 6.003906 -9.625 4.703125 -10.125 C 3.398438 -10.625 2.101562 -11.125 0.8125 -11.625 C 1.644531 -10.3125 2.484375 -8.992188 3.328125 -7.671875 C 4.179688 -6.359375 5.050781 -5.0625 5.9375 -3.78125 C 6.332031 -3.21875 6.488281 -2.679688 6.40625 -2.171875 C 6.320312 -1.660156 6.085938 -1.222656 5.703125 -0.859375 C 5.328125 -0.503906 4.875 -0.253906 4.34375 -0.109375 C 3.8125 0.0351562 3.273438 0.0351562 2.734375 -0.109375 C 2.203125 -0.265625 1.75 -0.632812 1.375 -1.21875 C -1.832031 -5.882812 -4.847656 -10.679688 -7.671875 -15.609375 C -7.910156 -16.054688 -8 -16.539062 -7.9375 -17.0625 C -7.875 -17.582031 -7.6875 -18.0625 -7.375 -18.5 C -7.070312 -18.945312 -6.691406 -19.269531 -6.234375 -19.46875 C -5.773438 -19.664062 -5.265625 -19.660156 -4.703125 -19.453125 L 2.5 -16.59375 C 1.4375 -18.175781 0.351562 -19.75 -0.75 -21.3125 C -1.851562 -22.875 -2.972656 -24.421875 -4.109375 -25.953125 Z M -4.109375 -25.953125 "/></g></g></g><g fill="#f4efff" fill-opacity="1"><g transform="translate(51.255094, 130.038259)"><g><path d="M 1.953125 -23.734375 C 3.660156 -22.128906 5.359375 -20.519531 7.046875 -18.90625 C 8.734375 -17.289062 10.425781 -15.675781 12.125 -14.0625 C 12.625 -13.601562 12.894531 -13.101562 12.9375 -12.5625 C 12.976562 -12.019531 12.859375 -11.519531 12.578125 -11.0625 C 12.304688 -10.613281 11.9375 -10.253906 11.46875 -9.984375 C 11 -9.710938 10.492188 -9.585938 9.953125 -9.609375 C 9.421875 -9.640625 8.90625 -9.882812 8.40625 -10.34375 C 7.882812 -10.820312 7.375 -11.304688 6.875 -11.796875 C 6.375 -12.285156 5.867188 -12.765625 5.359375 -13.234375 L 1.515625 -9.640625 C 1.984375 -8.898438 2.472656 -8.15625 2.984375 -7.40625 C 3.503906 -6.664062 4.019531 -5.925781 4.53125 -5.1875 C 4.914062 -4.632812 5.066406 -4.101562 4.984375 -3.59375 C 4.910156 -3.09375 4.6875 -2.65625 4.3125 -2.28125 C 3.9375 -1.90625 3.476562 -1.644531 2.9375 -1.5 C 2.40625 -1.363281 1.867188 -1.375 1.328125 -1.53125 C 0.785156 -1.6875 0.328125 -2.035156 -0.046875 -2.578125 C -1.367188 -4.503906 -2.632812 -6.441406 -3.84375 -8.390625 C -5.0625 -10.347656 -6.085938 -12.421875 -6.921875 -14.609375 C -7.328125 -15.679688 -7.707031 -16.90625 -8.0625 -18.28125 C -8.414062 -19.65625 -8.625 -21.023438 -8.6875 -22.390625 C -8.75 -23.753906 -8.554688 -25.015625 -8.109375 -26.171875 C -7.679688 -27.222656 -7.132812 -27.878906 -6.46875 -28.140625 C -5.8125 -28.410156 -5.085938 -28.414062 -4.296875 -28.15625 C -3.515625 -27.90625 -2.734375 -27.507812 -1.953125 -26.96875 C -1.171875 -26.425781 -0.4375 -25.851562 0.25 -25.25 C 0.945312 -24.65625 1.515625 -24.148438 1.953125 -23.734375 Z M -1.421875 -14.921875 C -1.367188 -14.828125 -1.316406 -14.734375 -1.265625 -14.640625 C -1.222656 -14.554688 -1.191406 -14.460938 -1.171875 -14.359375 C -0.703125 -14.785156 -0.242188 -15.207031 0.203125 -15.625 C 0.648438 -16.039062 1.09375 -16.457031 1.53125 -16.875 C 0.988281 -17.394531 0.445312 -17.910156 -0.09375 -18.421875 C -0.644531 -18.941406 -1.203125 -19.472656 -1.765625 -20.015625 C -1.992188 -20.222656 -2.226562 -20.445312 -2.46875 -20.6875 C -2.707031 -20.925781 -2.953125 -21.171875 -3.203125 -21.421875 C -3.148438 -20.804688 -3.0625 -20.238281 -2.9375 -19.71875 C -2.78125 -18.894531 -2.570312 -18.082031 -2.3125 -17.28125 C -2.050781 -16.476562 -1.753906 -15.691406 -1.421875 -14.921875 Z M -1.421875 -14.921875 "/></g></g></g><g fill="#f4efff" fill-opacity="1"><g transform="translate(65.59287, 115.700484)"><g><path d="M -1.46875 -19.96875 C 0.0820312 -20.269531 1.628906 -20.179688 3.171875 -19.703125 C 4.722656 -19.234375 6.015625 -18.367188 7.046875 -17.109375 C 7.921875 -16.003906 8.429688 -14.816406 8.578125 -13.546875 C 8.722656 -12.273438 8.585938 -11.03125 8.171875 -9.8125 C 7.753906 -8.59375 7.101562 -7.5 6.21875 -6.53125 C 5.34375 -5.570312 4.304688 -4.84375 3.109375 -4.34375 C 1.921875 -3.851562 0.648438 -3.710938 -0.703125 -3.921875 C -1.367188 -4.003906 -1.851562 -4.242188 -2.15625 -4.640625 C -2.46875 -5.046875 -2.625 -5.507812 -2.625 -6.03125 C -2.632812 -6.5625 -2.503906 -7.066406 -2.234375 -7.546875 C -1.972656 -8.035156 -1.597656 -8.425781 -1.109375 -8.71875 C -0.617188 -9.007812 -0.0390625 -9.101562 0.625 -9 C 0.925781 -8.945312 1.269531 -9.085938 1.65625 -9.421875 C 2.050781 -9.765625 2.398438 -10.144531 2.703125 -10.5625 C 3.015625 -10.988281 3.207031 -11.3125 3.28125 -11.53125 C 3.476562 -12.039062 3.5 -12.546875 3.34375 -13.046875 C 3.195312 -13.554688 2.910156 -13.972656 2.484375 -14.296875 C 1.972656 -14.703125 1.425781 -14.910156 0.84375 -14.921875 C 0.269531 -14.941406 -0.320312 -14.867188 -0.9375 -14.703125 C -1.5625 -14.546875 -2.171875 -14.367188 -2.765625 -14.171875 C -3.367188 -13.984375 -3.941406 -13.859375 -4.484375 -13.796875 C -6.035156 -13.703125 -7.328125 -13.988281 -8.359375 -14.65625 C -9.398438 -15.332031 -10.191406 -16.25 -10.734375 -17.40625 C -11.285156 -18.570312 -11.582031 -19.820312 -11.625 -21.15625 C -11.675781 -22.5 -11.484375 -23.773438 -11.046875 -24.984375 C -10.804688 -25.640625 -10.445312 -26.109375 -9.96875 -26.390625 C -9.488281 -26.671875 -8.976562 -26.8125 -8.4375 -26.8125 C -7.894531 -26.8125 -7.390625 -26.679688 -6.921875 -26.421875 C -6.453125 -26.160156 -6.113281 -25.789062 -5.90625 -25.3125 C -5.707031 -24.84375 -5.726562 -24.289062 -5.96875 -23.65625 C -6.101562 -23.25 -6.238281 -22.738281 -6.375 -22.125 C -6.519531 -21.519531 -6.550781 -20.9375 -6.46875 -20.375 C -6.394531 -19.820312 -6.085938 -19.421875 -5.546875 -19.171875 C -5.179688 -18.992188 -4.75 -18.957031 -4.25 -19.0625 C -3.757812 -19.175781 -3.265625 -19.332031 -2.765625 -19.53125 C -2.273438 -19.738281 -1.84375 -19.882812 -1.46875 -19.96875 Z M -1.46875 -19.96875 "/></g></g></g><g fill="#f4efff" fill-opacity="1"><g transform="translate(78.938412, 102.354942)"><g><path d="M -1.46875 -19.96875 C 0.0820312 -20.269531 1.628906 -20.179688 3.171875 -19.703125 C 4.722656 -19.234375 6.015625 -18.367188 7.046875 -17.109375 C 7.921875 -16.003906 8.429688 -14.816406 8.578125 -13.546875 C 8.722656 -12.273438 8.585938 -11.03125 8.171875 -9.8125 C 7.753906 -8.59375 7.101562 -7.5 6.21875 -6.53125 C 5.34375 -5.570312 4.304688 -4.84375 3.109375 -4.34375 C 1.921875 -3.851562 0.648438 -3.710938 -0.703125 -3.921875 C -1.367188 -4.003906 -1.851562 -4.242188 -2.15625 -4.640625 C -2.46875 -5.046875 -2.625 -5.507812 -2.625 -6.03125 C -2.632812 -6.5625 -2.503906 -7.066406 -2.234375 -7.546875 C -1.972656 -8.035156 -1.597656 -8.425781 -1.109375 -8.71875 C -0.617188 -9.007812 -0.0390625 -9.101562 0.625 -9 C 0.925781 -8.945312 1.269531 -9.085938 1.65625 -9.421875 C 2.050781 -9.765625 2.398438 -10.144531 2.703125 -10.5625 C 3.015625 -10.988281 3.207031 -11.3125 3.28125 -11.53125 C 3.476562 -12.039062 3.5 -12.546875 3.34375 -13.046875 C 3.195312 -13.554688 2.910156 -13.972656 2.484375 -14.296875 C 1.972656 -14.703125 1.425781 -14.910156 0.84375 -14.921875 C 0.269531 -14.941406 -0.320312 -14.867188 -0.9375 -14.703125 C -1.5625 -14.546875 -2.171875 -14.367188 -2.765625 -14.171875 C -3.367188 -13.984375 -3.941406 -13.859375 -4.484375 -13.796875 C -6.035156 -13.703125 -7.328125 -13.988281 -8.359375 -14.65625 C -9.398438 -15.332031 -10.191406 -16.25 -10.734375 -17.40625 C -11.285156 -18.570312 -11.582031 -19.820312 -11.625 -21.15625 C -11.675781 -22.5 -11.484375 -23.773438 -11.046875 -24.984375 C -10.804688 -25.640625 -10.445312 -26.109375 -9.96875 -26.390625 C -9.488281 -26.671875 -8.976562 -26.8125 -8.4375 -26.8125 C -7.894531 -26.8125 -7.390625 -26.679688 -6.921875 -26.421875 C -6.453125 -26.160156 -6.113281 -25.789062 -5.90625 -25.3125 C -5.707031 -24.84375 -5.726562 -24.289062 -5.96875 -23.65625 C -6.101562 -23.25 -6.238281 -22.738281 -6.375 -22.125 C -6.519531 -21.519531 -6.550781 -20.9375 -6.46875 -20.375 C -6.394531 -19.820312 -6.085938 -19.421875 -5.546875 -19.171875 C -5.179688 -18.992188 -4.75 -18.957031 -4.25 -19.0625 C -3.757812 -19.175781 -3.265625 -19.332031 -2.765625 -19.53125 C -2.273438 -19.738281 -1.84375 -19.882812 -1.46875 -19.96875 Z M -1.46875 -19.96875 "/></g></g></g></g></g></svg>