<svg width="240" height="240" viewBox="0 0 240 240" fill="none" xmlns="http://www.w3.org/2000/svg">
  <defs>
    <linearGradient id="bg" x1="22" y1="20" x2="220" y2="220" gradientUnits="userSpaceOnUse">
      <stop offset="0" stop-color="#0EA5E9"/>
      <stop offset="0.5" stop-color="#2563EB"/>
      <stop offset="1" stop-color="#14B8A6"/>
    </linearGradient>
    <linearGradient id="pen" x1="58" y1="176" x2="178" y2="57" gradientUnits="userSpaceOnUse">
      <stop offset="0" stop-color="#F59E0B"/>
      <stop offset="1" stop-color="#FB7185"/>
    </linearGradient>
  </defs>
  <rect x="18" y="18" width="204" height="204" rx="34" fill="url(#bg)"/>
  <rect x="40" y="40" width="160" height="160" rx="24" fill="rgba(255,255,255,0.12)" stroke="rgba(255,255,255,0.4)" stroke-width="3"/>
  <path d="M70 166c27-6 52-10 86-12" stroke="white" stroke-opacity="0.95" stroke-width="8" stroke-linecap="round"/>
  <path d="M84 145c14-19 34-40 63-58" stroke="white" stroke-opacity="0.92" stroke-width="7" stroke-linecap="round"/>
  <path d="M148 70l23 22-68 68-31 8 8-31 68-67z" fill="url(#pen)" stroke="rgba(0,0,0,0.28)" stroke-width="3"/>
  <path d="M170 91l6-6c4-4 4-9 0-13l-9-9c-4-4-10-4-14 0l-6 6 23 22z" fill="#F8FAFC" fill-opacity="0.92"/>
  <circle cx="181" cy="170" r="9" fill="white" fill-opacity="0.9"/>
  <circle cx="157" cy="180" r="6" fill="white" fill-opacity="0.65"/>
  <circle cx="132" cy="188" r="4.5" fill="white" fill-opacity="0.5"/>
</svg>
