<svg xmlns="http://www.w3.org/2000/svg" xmlns:xlink="http://www.w3.org/1999/xlink" width="500" zoomAndPan="magnify" viewBox="39 39 297 297" height="500" preserveAspectRatio="xMidYMid meet" version="1.0"><defs><clipPath id="c0c13b2ffe"><path d="M 4.589844 4.734375 L 296.613281 4.734375 L 296.613281 296.757812 L 4.589844 296.757812 Z M 4.589844 4.734375 " clip-rule="nonzero"/></clipPath><clipPath id="c860008e85"><path d="M 296.613281 49.734375 L 296.613281 251.757812 C 296.613281 263.691406 291.871094 275.140625 283.433594 283.578125 C 274.992188 292.015625 263.546875 296.757812 251.613281 296.757812 L 49.589844 296.757812 C 37.652344 296.757812 26.207031 292.015625 17.769531 283.578125 C 9.328125 275.140625 4.589844 263.691406 4.589844 251.757812 L 4.589844 49.734375 C 4.589844 37.800781 9.328125 26.351562 17.769531 17.914062 C 26.207031 9.476562 37.652344 4.734375 49.589844 4.734375 L 251.613281 4.734375 C 263.546875 4.734375 274.992188 9.476562 283.433594 17.914062 C 291.871094 26.351562 296.613281 37.800781 296.613281 49.734375 Z M 296.613281 49.734375 " clip-rule="nonzero"/></clipPath><clipPath id="e24a0cfd79"><path d="M 0.589844 0.734375 L 292.613281 0.734375 L 292.613281 292.757812 L 0.589844 292.757812 Z M 0.589844 0.734375 " clip-rule="nonzero"/></clipPath><clipPath id="b8d40e71f0"><path d="M 292.613281 45.734375 L 292.613281 247.757812 C 292.613281 259.691406 287.871094 271.140625 279.433594 279.578125 C 270.992188 288.015625 259.546875 292.757812 247.613281 292.757812 L 45.589844 292.757812 C 33.652344 292.757812 22.207031 288.015625 13.769531 279.578125 C 5.328125 271.140625 0.589844 259.691406 0.589844 247.757812 L 0.589844 45.734375 C 0.589844 33.800781 5.328125 22.351562 13.769531 13.914062 C 22.207031 5.476562 33.652344 0.734375 45.589844 0.734375 L 247.613281 0.734375 C 259.546875 0.734375 270.992188 5.476562 279.433594 13.914062 C 287.871094 22.351562 292.613281 33.800781 292.613281 45.734375 Z M 292.613281 45.734375 " clip-rule="nonzero"/></clipPath><clipPath id="f852cdcf5c"><rect x="0" width="293" y="0" height="293"/></clipPath><clipPath id="a9b72d022e"><path d="M 2.183594 2.039062 L 294.207031 2.039062 L 294.207031 294.0625 L 2.183594 294.0625 Z M 2.183594 2.039062 " clip-rule="nonzero"/></clipPath><clipPath id="898f669668"><path d="M 294.207031 47.039062 L 294.207031 249.0625 C 294.207031 260.996094 289.46875 272.445312 281.027344 280.882812 C 272.589844 289.320312 261.144531 294.0625 249.207031 294.0625 L 47.183594 294.0625 C 35.25 294.0625 23.804688 289.320312 15.363281 280.882812 C 6.925781 272.445312 2.183594 260.996094 2.183594 249.0625 L 2.183594 47.039062 C 2.183594 35.105469 6.925781 23.65625 15.363281 15.21875 C 23.804688 6.78125 35.25 2.039062 47.183594 2.039062 L 249.207031 2.039062 C 261.144531 2.039062 272.589844 6.78125 281.027344 15.21875 C 289.46875 23.65625 294.207031 35.105469 294.207031 47.039062 Z M 294.207031 47.039062 " clip-rule="nonzero"/></clipPath><clipPath id="3ab39200f5"><path d="M 0.183594 0.0390625 L 292.207031 0.0390625 L 292.207031 292.0625 L 0.183594 292.0625 Z M 0.183594 0.0390625 " clip-rule="nonzero"/></clipPath><clipPath id="b7750c2290"><path d="M 292.207031 45.039062 L 292.207031 247.0625 C 292.207031 258.996094 287.46875 270.445312 279.027344 278.882812 C 270.589844 287.320312 259.144531 292.0625 247.207031 292.0625 L 45.183594 292.0625 C 33.25 292.0625 21.804688 287.320312 13.363281 278.882812 C 4.925781 270.445312 0.183594 258.996094 0.183594 247.0625 L 0.183594 45.039062 C 0.183594 33.105469 4.925781 21.65625 13.363281 13.21875 C 21.804688 4.78125 33.25 0.0390625 45.183594 0.0390625 L 247.207031 0.0390625 C 259.144531 0.0390625 270.589844 4.78125 279.027344 13.21875 C 287.46875 21.65625 292.207031 33.105469 292.207031 45.039062 Z M 292.207031 45.039062 " clip-rule="nonzero"/></clipPath><clipPath id="0a2651b77a"><rect x="0" width="293" y="0" height="293"/></clipPath><clipPath id="290da85f68"><path d="M 0.386719 0.242188 L 292.410156 0.242188 L 292.410156 292.265625 L 0.386719 292.265625 Z M 0.386719 0.242188 " clip-rule="nonzero"/></clipPath><clipPath id="cec764aaa6"><path d="M 292.410156 45.242188 L 292.410156 247.265625 C 292.410156 259.199219 287.671875 270.648438 279.230469 279.085938 C 270.792969 287.523438 259.347656 292.265625 247.410156 292.265625 L 45.386719 292.265625 C 33.453125 292.265625 22.007812 287.523438 13.566406 279.085938 C 5.128906 270.648438 0.386719 259.199219 0.386719 247.265625 L 0.386719 45.242188 C 0.386719 33.308594 5.128906 21.859375 13.566406 13.421875 C 22.007812 4.984375 33.453125 0.242188 45.386719 0.242188 L 247.410156 0.242188 C 259.347656 0.242188 270.792969 4.984375 279.230469 13.421875 C 287.671875 21.859375 292.410156 33.308594 292.410156 45.242188 Z M 292.410156 45.242188 " clip-rule="nonzero"/></clipPath><clipPath id="7550c22624"><path d="M 0.386719 0.242188 L 292.410156 0.242188 L 292.410156 292.265625 L 0.386719 292.265625 Z M 0.386719 0.242188 " clip-rule="nonzero"/></clipPath><clipPath id="ce4e1a6483"><path d="M 292.410156 45.242188 L 292.410156 247.265625 C 292.410156 259.199219 287.671875 270.648438 279.230469 279.085938 C 270.792969 287.523438 259.347656 292.265625 247.410156 292.265625 L 45.386719 292.265625 C 33.453125 292.265625 22.007812 287.523438 13.566406 279.085938 C 5.128906 270.648438 0.386719 259.199219 0.386719 247.265625 L 0.386719 45.242188 C 0.386719 33.308594 5.128906 21.859375 13.566406 13.421875 C 22.007812 4.984375 33.453125 0.242188 45.386719 0.242188 L 247.410156 0.242188 C 259.347656 0.242188 270.792969 4.984375 279.230469 13.421875 C 287.671875 21.859375 292.410156 33.308594 292.410156 45.242188 Z M 292.410156 45.242188 " clip-rule="nonzero"/></clipPath><clipPath id="b9d9a42afa"><rect x="0" width="293" y="0" height="293"/></clipPath><clipPath id="4ed52c2bec"><path d="M 14.484375 134.597656 L 282.515625 134.597656 L 282.515625 234.4375 L 14.484375 234.4375 Z M 14.484375 134.597656 " clip-rule="nonzero"/></clipPath><clipPath id="a87b04f411"><path d="M 118.347656 81 L 178.652344 81 L 178.652344 196.578125 L 118.347656 196.578125 Z M 118.347656 81 " clip-rule="nonzero"/></clipPath><clipPath id="2b5f5630fd"><path d="M 129 62.5625 L 168 62.5625 L 168 79 L 129 79 Z M 129 62.5625 " clip-rule="nonzero"/></clipPath><clipPath id="cd853954ea"><rect x="0" width="297" y="0" height="297"/></clipPath></defs><g transform="matrix(1, 0, 0, 1, 39, 39)"><g clip-path="url(#cd853954ea)"><g clip-path="url(#c0c13b2ffe)"><g clip-path="url(#c860008e85)"><g transform="matrix(1, 0, 0, 1, 4, 4)"><g clip-path="url(#f852cdcf5c)"><g clip-path="url(#e24a0cfd79)"><g clip-path="url(#b8d40e71f0)"><path fill="#ffffff" d="M 0.589844 0.734375 L 292.613281 0.734375 L 292.613281 292.757812 L 0.589844 292.757812 Z M 0.589844 0.734375 " fill-opacity="1" fill-rule="nonzero"/></g></g></g></g></g></g><g clip-path="url(#a9b72d022e)"><g clip-path="url(#898f669668)"><g transform="matrix(1, 0, 0, 1, 2, 2)"><g clip-path="url(#0a2651b77a)"><g clip-path="url(#3ab39200f5)"><g clip-path="url(#b7750c2290)"><path fill="#119047" d="M 0.183594 0.0390625 L 292.207031 0.0390625 L 292.207031 292.0625 L 0.183594 292.0625 Z M 0.183594 0.0390625 " fill-opacity="1" fill-rule="nonzero"/></g></g></g></g></g></g><g clip-path="url(#290da85f68)"><g clip-path="url(#cec764aaa6)"><g><g clip-path="url(#b9d9a42afa)"><g clip-path="url(#7550c22624)"><g clip-path="url(#ce4e1a6483)"><path fill="#ffffff" d="M 0.386719 0.242188 L 292.410156 0.242188 L 292.410156 292.265625 L 0.386719 292.265625 Z M 0.386719 0.242188 " fill-opacity="1" fill-rule="nonzero"/></g></g></g></g></g></g><g clip-path="url(#4ed52c2bec)"><path fill="#119047" d="M 251.347656 188.910156 C 215.019531 179.078125 187.828125 187.375 169.976562 197.90625 C 194.382812 173.082031 231.617188 164.921875 243.539062 162.902344 Z M 208.394531 134.730469 L 218.644531 159.207031 C 199.332031 165.203125 174.089844 176.847656 157.007812 198.324219 C 167.816406 160.738281 197.378906 140.9375 208.394531 134.730469 Z M 88.464844 134.730469 C 99.480469 140.9375 129.046875 160.671875 139.855469 198.394531 C 122.769531 176.917969 97.527344 165.273438 78.214844 159.277344 Z M 53.320312 162.902344 C 65.246094 164.921875 102.480469 173.082031 126.882812 197.90625 C 109.035156 187.375 81.839844 179.078125 45.511719 188.910156 Z M 164.117188 234.304688 L 132.742188 234.304688 C 125.839844 225.378906 95.996094 196.71875 14.484375 230.675781 L 21.523438 207.875 C 102.828125 168.410156 142.992188 222.589844 144.664062 224.960938 C 144.734375 225.027344 144.804688 225.027344 144.875 225.097656 C 144.945312 225.238281 145.011719 225.378906 145.152344 225.449219 C 145.222656 225.515625 145.222656 225.515625 145.222656 225.585938 C 145.363281 225.726562 145.5 225.796875 145.710938 225.867188 C 145.851562 225.933594 145.988281 226.074219 146.128906 226.144531 C 146.269531 226.214844 146.40625 226.355469 146.617188 226.421875 C 146.6875 226.421875 146.757812 226.492188 146.757812 226.492188 C 147.035156 226.632812 147.382812 226.632812 147.734375 226.703125 C 147.941406 226.703125 148.082031 226.84375 148.289062 226.84375 C 148.359375 226.84375 148.429688 226.84375 148.5 226.84375 C 148.570312 226.84375 148.640625 226.84375 148.710938 226.84375 C 148.917969 226.84375 149.058594 226.773438 149.265625 226.703125 C 149.617188 226.632812 149.894531 226.632812 150.242188 226.492188 C 150.3125 226.492188 150.382812 226.421875 150.382812 226.421875 C 150.59375 226.355469 150.730469 226.214844 150.871094 226.144531 C 151.011719 226.074219 151.148438 226.003906 151.289062 225.867188 C 151.429688 225.726562 151.636719 225.65625 151.777344 225.585938 C 151.847656 225.515625 151.847656 225.515625 151.847656 225.449219 C 151.988281 225.308594 152.054688 225.238281 152.125 225.097656 C 152.195312 225.027344 152.265625 225.027344 152.335938 224.960938 C 154.007812 222.589844 194.171875 168.410156 275.476562 207.875 L 282.515625 230.675781 C 200.933594 196.71875 171.023438 225.449219 164.117188 234.304688 Z M 164.117188 234.304688 " fill-opacity="1" fill-rule="nonzero"/></g><g clip-path="url(#a87b04f411)"><path fill="#119047" d="M 146.988281 196.558594 L 146.988281 137.742188 C 145.035156 137.136719 143.382812 135.222656 143.382812 132.953125 C 143.382812 130.199219 145.585938 127.964844 148.339844 127.964844 C 148.394531 127.964844 148.449219 127.96875 148.503906 127.96875 C 148.554688 127.96875 148.609375 127.964844 148.660156 127.964844 C 151.417969 127.964844 153.636719 130.199219 153.636719 132.953125 C 153.636719 135.222656 151.984375 137.136719 150.03125 137.742188 L 150.03125 196.558594 C 158.714844 154.839844 178.660156 136.183594 178.660156 136.183594 C 178.660156 136.183594 163.636719 104.273438 163.738281 81.367188 L 133.277344 81.367188 C 133.382812 104.273438 118.359375 136.183594 118.359375 136.183594 C 118.359375 136.183594 138.304688 154.839844 146.988281 196.558594 Z M 146.988281 196.558594 " fill-opacity="1" fill-rule="nonzero"/></g><g clip-path="url(#2b5f5630fd)"><path fill="#119047" d="M 167.292969 78.867188 L 167.292969 62.582031 L 129.726562 62.582031 L 129.726562 78.867188 Z M 167.292969 78.867188 " fill-opacity="1" fill-rule="nonzero"/></g></g></g></svg>