<svg xmlns="http://www.w3.org/2000/svg" xmlns:xlink="http://www.w3.org/1999/xlink" width="500" zoomAndPan="magnify" viewBox="39 39 297 297" height="500" preserveAspectRatio="xMidYMid meet" version="1.0"><defs><clipPath id="36832be615"><path d="M 4.589844 4.734375 L 296.613281 4.734375 L 296.613281 296.757812 L 4.589844 296.757812 Z M 4.589844 4.734375 " clip-rule="nonzero"/></clipPath><clipPath id="e4c9d985ca"><path d="M 296.613281 49.734375 L 296.613281 251.757812 C 296.613281 263.691406 291.871094 275.140625 283.433594 283.578125 C 274.992188 292.015625 263.546875 296.757812 251.613281 296.757812 L 49.589844 296.757812 C 37.652344 296.757812 26.207031 292.015625 17.769531 283.578125 C 9.328125 275.140625 4.589844 263.691406 4.589844 251.757812 L 4.589844 49.734375 C 4.589844 37.800781 9.328125 26.351562 17.769531 17.914062 C 26.207031 9.476562 37.652344 4.734375 49.589844 4.734375 L 251.613281 4.734375 C 263.546875 4.734375 274.992188 9.476562 283.433594 17.914062 C 291.871094 26.351562 296.613281 37.800781 296.613281 49.734375 Z M 296.613281 49.734375 " clip-rule="nonzero"/></clipPath><clipPath id="81c4fdcf67"><path d="M 0.589844 0.734375 L 292.613281 0.734375 L 292.613281 292.757812 L 0.589844 292.757812 Z M 0.589844 0.734375 " clip-rule="nonzero"/></clipPath><clipPath id="5989ce3827"><path d="M 292.613281 45.734375 L 292.613281 247.757812 C 292.613281 259.691406 287.871094 271.140625 279.433594 279.578125 C 270.992188 288.015625 259.546875 292.757812 247.613281 292.757812 L 45.589844 292.757812 C 33.652344 292.757812 22.207031 288.015625 13.769531 279.578125 C 5.328125 271.140625 0.589844 259.691406 0.589844 247.757812 L 0.589844 45.734375 C 0.589844 33.800781 5.328125 22.351562 13.769531 13.914062 C 22.207031 5.476562 33.652344 0.734375 45.589844 0.734375 L 247.613281 0.734375 C 259.546875 0.734375 270.992188 5.476562 279.433594 13.914062 C 287.871094 22.351562 292.613281 33.800781 292.613281 45.734375 Z M 292.613281 45.734375 " clip-rule="nonzero"/></clipPath><clipPath id="a5289ee8a2"><rect x="0" width="293" y="0" height="293"/></clipPath><clipPath id="c9f86dc107"><path d="M 2.183594 2.039062 L 294.207031 2.039062 L 294.207031 294.0625 L 2.183594 294.0625 Z M 2.183594 2.039062 " clip-rule="nonzero"/></clipPath><clipPath id="ad4734d89e"><path d="M 294.207031 47.039062 L 294.207031 249.0625 C 294.207031 260.996094 289.46875 272.445312 281.027344 280.882812 C 272.589844 289.320312 261.144531 294.0625 249.207031 294.0625 L 47.183594 294.0625 C 35.25 294.0625 23.804688 289.320312 15.363281 280.882812 C 6.925781 272.445312 2.183594 260.996094 2.183594 249.0625 L 2.183594 47.039062 C 2.183594 35.105469 6.925781 23.65625 15.363281 15.21875 C 23.804688 6.78125 35.25 2.039062 47.183594 2.039062 L 249.207031 2.039062 C 261.144531 2.039062 272.589844 6.78125 281.027344 15.21875 C 289.46875 23.65625 294.207031 35.105469 294.207031 47.039062 Z M 294.207031 47.039062 " clip-rule="nonzero"/></clipPath><clipPath id="a36de6bf04"><path d="M 0.183594 0.0390625 L 292.207031 0.0390625 L 292.207031 292.0625 L 0.183594 292.0625 Z M 0.183594 0.0390625 " clip-rule="nonzero"/></clipPath><clipPath id="59f672fa8d"><path d="M 292.207031 45.039062 L 292.207031 247.0625 C 292.207031 258.996094 287.46875 270.445312 279.027344 278.882812 C 270.589844 287.320312 259.144531 292.0625 247.207031 292.0625 L 45.183594 292.0625 C 33.25 292.0625 21.804688 287.320312 13.363281 278.882812 C 4.925781 270.445312 0.183594 258.996094 0.183594 247.0625 L 0.183594 45.039062 C 0.183594 33.105469 4.925781 21.65625 13.363281 13.21875 C 21.804688 4.78125 33.25 0.0390625 45.183594 0.0390625 L 247.207031 0.0390625 C 259.144531 0.0390625 270.589844 4.78125 279.027344 13.21875 C 287.46875 21.65625 292.207031 33.105469 292.207031 45.039062 Z M 292.207031 45.039062 " clip-rule="nonzero"/></clipPath><clipPath id="91b0d9c68c"><rect x="0" width="293" y="0" height="293"/></clipPath><clipPath id="56513c8008"><path d="M 0.386719 0.242188 L 292.410156 0.242188 L 292.410156 292.265625 L 0.386719 292.265625 Z M 0.386719 0.242188 " clip-rule="nonzero"/></clipPath><clipPath id="b76910331b"><path d="M 292.410156 45.242188 L 292.410156 247.265625 C 292.410156 259.199219 287.671875 270.648438 279.230469 279.085938 C 270.792969 287.523438 259.347656 292.265625 247.410156 292.265625 L 45.386719 292.265625 C 33.453125 292.265625 22.007812 287.523438 13.566406 279.085938 C 5.128906 270.648438 0.386719 259.199219 0.386719 247.265625 L 0.386719 45.242188 C 0.386719 33.308594 5.128906 21.859375 13.566406 13.421875 C 22.007812 4.984375 33.453125 0.242188 45.386719 0.242188 L 247.410156 0.242188 C 259.347656 0.242188 270.792969 4.984375 279.230469 13.421875 C 287.671875 21.859375 292.410156 33.308594 292.410156 45.242188 Z M 292.410156 45.242188 " clip-rule="nonzero"/></clipPath><clipPath id="6da09a3ca4"><path d="M 0.386719 0.242188 L 292.410156 0.242188 L 292.410156 292.265625 L 0.386719 292.265625 Z M 0.386719 0.242188 " clip-rule="nonzero"/></clipPath><clipPath id="cbd7ff127a"><path d="M 292.410156 45.242188 L 292.410156 247.265625 C 292.410156 259.199219 287.671875 270.648438 279.230469 279.085938 C 270.792969 287.523438 259.347656 292.265625 247.410156 292.265625 L 45.386719 292.265625 C 33.453125 292.265625 22.007812 287.523438 13.566406 279.085938 C 5.128906 270.648438 0.386719 259.199219 0.386719 247.265625 L 0.386719 45.242188 C 0.386719 33.308594 5.128906 21.859375 13.566406 13.421875 C 22.007812 4.984375 33.453125 0.242188 45.386719 0.242188 L 247.410156 0.242188 C 259.347656 0.242188 270.792969 4.984375 279.230469 13.421875 C 287.671875 21.859375 292.410156 33.308594 292.410156 45.242188 Z M 292.410156 45.242188 " clip-rule="nonzero"/></clipPath><clipPath id="d9a6ba7d62"><rect x="0" width="293" y="0" height="293"/></clipPath><clipPath id="c0b9adc146"><rect x="0" width="297" y="0" height="297"/></clipPath></defs><g transform="matrix(1, 0, 0, 1, 39, 39)"><g clip-path="url(#c0b9adc146)"><g clip-path="url(#36832be615)"><g clip-path="url(#e4c9d985ca)"><g transform="matrix(1, 0, 0, 1, 4, 4)"><g clip-path="url(#a5289ee8a2)"><g clip-path="url(#81c4fdcf67)"><g clip-path="url(#5989ce3827)"><path fill="#212121" d="M 0.589844 0.734375 L 292.613281 0.734375 L 292.613281 292.757812 L 0.589844 292.757812 Z M 0.589844 0.734375 " fill-opacity="1" fill-rule="nonzero"/></g></g></g></g></g></g><g clip-path="url(#c9f86dc107)"><g clip-path="url(#ad4734d89e)"><g transform="matrix(1, 0, 0, 1, 2, 2)"><g clip-path="url(#91b0d9c68c)"><g clip-path="url(#a36de6bf04)"><g clip-path="url(#59f672fa8d)"><path fill="#ffbf00" d="M 0.183594 0.0390625 L 292.207031 0.0390625 L 292.207031 292.0625 L 0.183594 292.0625 Z M 0.183594 0.0390625 " fill-opacity="1" fill-rule="nonzero"/></g></g></g></g></g></g><g clip-path="url(#56513c8008)"><g clip-path="url(#b76910331b)"><g><g clip-path="url(#d9a6ba7d62)"><g clip-path="url(#6da09a3ca4)"><g clip-path="url(#cbd7ff127a)"><path fill="#212121" d="M 0.386719 0.242188 L 292.410156 0.242188 L 292.410156 292.265625 L 0.386719 292.265625 Z M 0.386719 0.242188 " fill-opacity="1" fill-rule="nonzero"/></g></g></g></g></g></g><path fill="#ffbf00" d="M 96.050781 138.164062 C 95.257812 138.164062 94.632812 138.359375 94.171875 138.757812 C 93.714844 139.175781 93.484375 139.851562 93.484375 140.792969 C 93.484375 140.980469 93.546875 141.207031 93.671875 141.480469 C 93.796875 141.75 93.964844 142.011719 94.171875 142.261719 C 94.402344 142.535156 94.671875 142.761719 94.988281 142.949219 C 95.300781 143.140625 95.652344 143.234375 96.050781 143.234375 C 96.257812 143.234375 96.46875 143.140625 96.675781 142.949219 C 96.886719 142.761719 97.074219 142.542969 97.238281 142.292969 C 97.40625 142.023438 97.53125 141.75 97.613281 141.480469 C 97.71875 141.207031 97.773438 140.980469 97.773438 140.792969 C 97.773438 139.851562 97.59375 139.183594 97.238281 138.789062 C 96.886719 138.371094 96.488281 138.164062 96.050781 138.164062 Z M 123.058594 139.257812 C 122.828125 139.257812 122.652344 139.332031 122.527344 139.476562 C 122.402344 139.625 122.316406 139.78125 122.277344 139.945312 C 122.191406 140.15625 122.160156 140.375 122.183594 140.605469 L 122.183594 142.855469 C 122.183594 143.085938 122.183594 143.328125 122.183594 143.578125 C 122.203125 143.847656 122.234375 144.097656 122.277344 144.328125 C 122.339844 144.558594 122.421875 144.746094 122.527344 144.890625 C 122.652344 145.058594 122.828125 145.140625 123.058594 145.140625 C 123.390625 145.140625 123.621094 145.027344 123.746094 144.796875 C 123.894531 144.566406 123.988281 144.308594 124.027344 144.015625 C 124.070312 143.679688 124.050781 143.296875 123.964844 142.855469 L 123.527344 139.726562 C 123.589844 139.664062 123.621094 139.59375 123.621094 139.507812 C 123.621094 139.445312 123.589844 139.394531 123.527344 139.351562 C 123.445312 139.289062 123.289062 139.257812 123.058594 139.257812 Z M 149.125 139.257812 C 148.898438 139.257812 148.71875 139.332031 148.59375 139.476562 C 148.46875 139.625 148.386719 139.78125 148.34375 139.945312 C 148.261719 140.15625 148.230469 140.375 148.25 140.605469 L 148.25 142.855469 C 148.25 143.085938 148.25 143.328125 148.25 143.578125 C 148.269531 143.847656 148.300781 144.097656 148.34375 144.328125 C 148.40625 144.558594 148.492188 144.746094 148.59375 144.890625 C 148.71875 145.058594 148.898438 145.140625 149.125 145.140625 C 149.460938 145.140625 149.691406 145.027344 149.816406 144.796875 C 149.960938 144.566406 150.054688 144.308594 150.097656 144.015625 C 150.140625 143.679688 150.117188 143.296875 150.035156 142.855469 L 149.597656 139.726562 C 149.660156 139.664062 149.691406 139.59375 149.691406 139.507812 C 149.691406 139.445312 149.660156 139.394531 149.597656 139.351562 C 149.511719 139.289062 149.355469 139.257812 149.125 139.257812 Z M 175.195312 139.257812 C 174.964844 139.257812 174.789062 139.332031 174.664062 139.476562 C 174.539062 139.625 174.453125 139.78125 174.414062 139.945312 C 174.328125 140.15625 174.296875 140.375 174.320312 140.605469 L 174.320312 142.855469 C 174.320312 143.085938 174.320312 143.328125 174.320312 143.578125 C 174.339844 143.847656 174.371094 144.097656 174.414062 144.328125 C 174.476562 144.558594 174.558594 144.746094 174.664062 144.890625 C 174.789062 145.058594 174.964844 145.140625 175.195312 145.140625 C 175.53125 145.140625 175.757812 145.027344 175.882812 144.796875 C 176.03125 144.566406 176.125 144.308594 176.164062 144.015625 C 176.207031 143.679688 176.1875 143.296875 176.101562 142.855469 L 175.664062 139.726562 C 175.726562 139.664062 175.757812 139.59375 175.757812 139.507812 C 175.757812 139.445312 175.726562 139.394531 175.664062 139.351562 C 175.582031 139.289062 175.425781 139.257812 175.195312 139.257812 Z M 198.855469 133.40625 C 199.648438 133.425781 200.261719 133.480469 200.699219 133.5625 C 200.992188 133.5625 201.359375 133.550781 201.796875 133.53125 C 202.253906 133.488281 202.746094 133.46875 203.265625 133.46875 C 203.808594 133.46875 204.351562 133.511719 204.894531 133.59375 C 205.457031 133.699219 205.980469 133.875 206.460938 134.125 C 206.960938 134.398438 207.398438 134.761719 207.773438 135.222656 C 208.148438 135.679688 208.421875 136.273438 208.585938 137.003906 C 208.859375 138.132812 208.902344 138.976562 208.710938 139.539062 C 208.523438 140.125 208.191406 140.519531 207.710938 140.730469 C 207.289062 140.921875 206.773438 141.019531 206.171875 141.019531 C 206.0625 141.019531 205.949219 141.015625 205.832031 141.011719 C 205.082031 140.96875 204.277344 140.894531 203.421875 140.792969 C 203.347656 140.78125 203.273438 140.777344 203.203125 140.777344 C 202.796875 140.777344 202.441406 140.929688 202.140625 141.230469 C 201.785156 141.605469 201.492188 142.09375 201.265625 142.699219 C 201.035156 143.304688 200.859375 143.984375 200.734375 144.734375 C 200.605469 145.484375 200.523438 146.226562 200.480469 146.957031 C 200.417969 147.707031 200.386719 148.394531 200.386719 149.023438 C 200.367188 149.648438 200.355469 150.128906 200.355469 150.460938 C 200.355469 150.796875 200.378906 151.296875 200.417969 151.964844 C 200.480469 152.632812 200.511719 153.351562 200.511719 154.125 C 200.492188 154.894531 200.417969 155.667969 200.292969 156.4375 C 200.167969 157.230469 199.941406 157.929688 199.605469 158.535156 C 199.273438 159.140625 198.8125 159.601562 198.230469 159.914062 C 197.851562 160.109375 197.398438 160.207031 196.875 160.207031 C 196.558594 160.207031 196.21875 160.171875 195.851562 160.101562 C 194.871094 159.996094 194.160156 159.578125 193.722656 158.847656 C 193.261719 158.097656 192.992188 157.179688 192.910156 156.09375 C 192.804688 155.011719 192.835938 153.808594 193.003906 152.496094 C 193.167969 151.179688 193.378906 149.898438 193.628906 148.648438 C 193.878906 147.375 194.128906 146.195312 194.378906 145.109375 C 194.628906 144.027344 194.785156 143.160156 194.847656 142.511719 C 194.933594 142.054688 194.941406 141.65625 194.878906 141.324219 C 194.816406 140.96875 194.722656 140.675781 194.597656 140.449219 C 194.453125 140.21875 194.273438 140.03125 194.066406 139.882812 C 193.835938 139.738281 193.609375 139.632812 193.378906 139.570312 C 193.015625 139.460938 192.605469 139.402344 192.140625 139.402344 C 191.910156 139.402344 191.664062 139.417969 191.40625 139.445312 C 191.3125 139.398438 191.183594 139.375 191.019531 139.375 C 190.964844 139.375 190.90625 139.378906 190.84375 139.382812 C 190.570312 139.425781 190.28125 139.457031 189.96875 139.476562 C 189.800781 139.488281 189.632812 139.492188 189.464844 139.492188 C 189.300781 139.492188 189.132812 139.488281 188.964844 139.476562 C 188.632812 139.433594 188.351562 139.332031 188.121094 139.164062 C 187.871094 138.976562 187.691406 138.695312 187.589844 138.320312 C 187.464844 137.921875 187.453125 137.378906 187.558594 136.691406 C 187.597656 136.234375 187.703125 135.835938 187.871094 135.503906 C 188.058594 135.148438 188.277344 134.855469 188.527344 134.625 C 188.777344 134.398438 189.058594 134.210938 189.371094 134.0625 C 189.683594 133.917969 190 133.800781 190.3125 133.71875 C 190.816406 133.589844 191.363281 133.523438 191.949219 133.523438 C 192.207031 133.523438 192.476562 133.535156 192.753906 133.5625 C 193.003906 133.5625 193.472656 133.550781 194.160156 133.53125 C 194.871094 133.488281 195.632812 133.457031 196.445312 133.4375 C 197.28125 133.417969 198.082031 133.40625 198.855469 133.40625 Z M 48.417969 131.871094 C 49.191406 131.933594 49.890625 132.152344 50.515625 132.53125 C 51.058594 132.863281 51.558594 133.363281 52.019531 134.03125 C 52.476562 134.71875 52.75 135.710938 52.832031 137.003906 C 52.832031 138.070312 52.664062 138.871094 52.332031 139.414062 C 51.996094 139.957031 51.582031 140.320312 51.078125 140.511719 C 50.71875 140.640625 50.335938 140.703125 49.9375 140.703125 C 49.757812 140.703125 49.574219 140.691406 49.390625 140.667969 C 48.785156 140.5625 48.199219 140.417969 47.636719 140.226562 C 47.074219 140.019531 46.574219 139.800781 46.136719 139.570312 C 45.695312 139.339844 45.394531 139.175781 45.226562 139.070312 C 45.058594 139.070312 44.820312 139.039062 44.507812 138.976562 C 44.195312 138.914062 43.871094 138.882812 43.539062 138.882812 C 43.464844 138.878906 43.398438 138.875 43.328125 138.875 C 43.054688 138.875 42.800781 138.910156 42.566406 138.976562 C 42.273438 139.082031 42.085938 139.300781 42.003906 139.632812 C 41.941406 139.925781 41.972656 140.207031 42.097656 140.480469 C 42.242188 140.75 42.429688 141 42.660156 141.230469 C 42.910156 141.460938 43.183594 141.679688 43.476562 141.886719 C 43.765625 142.117188 44.027344 142.335938 44.257812 142.542969 C 44.464844 142.605469 44.839844 142.761719 45.382812 143.011719 C 45.945312 143.285156 46.5625 143.640625 47.230469 144.078125 C 47.917969 144.535156 48.605469 145.070312 49.296875 145.671875 C 49.984375 146.300781 50.589844 147.007812 51.109375 147.800781 C 51.632812 148.617188 52.007812 149.503906 52.238281 150.460938 C 52.464844 151.441406 52.445312 152.496094 52.175781 153.621094 C 51.902344 154.769531 51.464844 155.75 50.859375 156.5625 C 50.234375 157.398438 49.523438 158.097656 48.730469 158.660156 C 47.941406 159.222656 47.09375 159.664062 46.199219 159.976562 C 45.28125 160.289062 44.394531 160.507812 43.539062 160.632812 C 42.804688 160.738281 42.125 160.792969 41.5 160.792969 C 41.394531 160.792969 41.292969 160.792969 41.191406 160.789062 C 40.460938 160.746094 39.886719 160.652344 39.46875 160.507812 C 38.84375 160.402344 38.132812 160.203125 37.339844 159.914062 C 36.546875 159.621094 35.808594 159.191406 35.117188 158.628906 C 34.429688 158.066406 33.867188 157.355469 33.429688 156.5 C 32.96875 155.625 32.773438 154.5625 32.835938 153.308594 C 33 152.015625 33.398438 151.117188 34.023438 150.617188 C 34.601562 150.15625 35.285156 149.925781 36.078125 149.925781 C 36.144531 149.925781 36.210938 149.925781 36.277344 149.929688 C 37.175781 149.992188 38.144531 150.261719 39.1875 150.742188 C 40.25 151.222656 41.304688 151.785156 42.347656 152.433594 C 43.308594 153.058594 44.101562 153.371094 44.726562 153.371094 C 45.351562 153.351562 45.84375 153.207031 46.199219 152.933594 C 46.613281 152.621094 46.925781 152.152344 47.136719 151.527344 C 47.429688 150.773438 47.460938 150.023438 47.230469 149.273438 C 47.125 148.960938 46.96875 148.625 46.761719 148.269531 C 46.550781 147.917969 46.261719 147.5625 45.882812 147.207031 C 45.507812 146.832031 45.039062 146.464844 44.476562 146.113281 C 43.890625 145.757812 43.183594 145.421875 42.347656 145.109375 C 40.136719 144.464844 38.363281 143.773438 37.027344 143.042969 C 35.691406 142.292969 34.753906 141.5 34.210938 140.667969 C 33.648438 139.832031 33.449219 138.964844 33.617188 138.070312 C 33.804688 137.171875 34.292969 136.253906 35.085938 135.316406 C 35.484375 134.875 35.972656 134.5 36.558594 134.1875 C 37.144531 133.855469 37.777344 133.574219 38.46875 133.34375 C 39.175781 133.09375 39.90625 132.882812 40.65625 132.71875 C 41.429688 132.550781 42.179688 132.414062 42.910156 132.3125 C 44.644531 132.058594 46.480469 131.914062 48.417969 131.871094 Z M 71.3125 126.730469 C 71.628906 126.730469 71.9375 126.742188 72.234375 126.769531 C 74.34375 126.960938 76.34375 127.710938 78.242188 129.023438 C 78.933594 129.398438 79.527344 129.839844 80.027344 130.339844 C 80.445312 130.757812 80.777344 131.265625 81.027344 131.871094 C 81.300781 132.476562 81.308594 133.144531 81.058594 133.875 C 80.746094 134.75 80.371094 135.441406 79.933594 135.941406 C 79.496094 136.441406 79.035156 136.808594 78.554688 137.035156 C 78.054688 137.285156 77.554688 137.433594 77.054688 137.472656 C 76.753906 137.511719 76.460938 137.53125 76.175781 137.53125 C 75.984375 137.53125 75.796875 137.523438 75.613281 137.503906 C 75.136719 137.441406 74.707031 137.378906 74.332031 137.316406 C 73.933594 137.234375 73.621094 137.191406 73.394531 137.191406 C 73.226562 137.109375 73.007812 137.003906 72.734375 136.878906 C 72.445312 136.734375 72.109375 136.640625 71.734375 136.597656 C 71.574219 136.570312 71.40625 136.558594 71.226562 136.558594 C 70.992188 136.558594 70.746094 136.582031 70.480469 136.628906 C 70.003906 136.734375 69.511719 136.953125 69.011719 137.285156 C 68.488281 137.640625 67.957031 138.152344 67.414062 138.820312 C 66.851562 139.507812 66.289062 140.417969 65.726562 141.542969 C 65.246094 142.753906 65.058594 143.804688 65.164062 144.703125 C 65.289062 145.601562 65.589844 146.363281 66.070312 146.988281 C 66.550781 147.636719 67.144531 148.15625 67.855469 148.554688 C 68.5625 148.96875 69.261719 149.292969 69.949219 149.523438 C 70.660156 149.773438 71.285156 149.941406 71.828125 150.023438 C 72.371094 150.128906 72.726562 150.179688 72.890625 150.179688 C 73.058594 150.179688 73.351562 150.222656 73.769531 150.304688 C 74.1875 150.410156 74.632812 150.566406 75.113281 150.773438 C 75.59375 151.003906 76.0625 151.296875 76.523438 151.652344 C 76.980469 152.027344 77.347656 152.496094 77.617188 153.058594 C 77.890625 153.644531 78.015625 154.320312 77.992188 155.09375 C 77.972656 155.886719 77.722656 156.804688 77.242188 157.847656 C 76.761719 158.972656 76.210938 159.828125 75.582031 160.414062 C 74.9375 160.996094 74.257812 161.382812 73.550781 161.570312 C 72.988281 161.730469 72.417969 161.8125 71.84375 161.8125 C 71.671875 161.8125 71.5 161.804688 71.328125 161.789062 C 70.578125 161.707031 69.855469 161.570312 69.167969 161.382812 C 68.457031 161.175781 67.8125 160.957031 67.226562 160.726562 C 66.621094 160.496094 66.121094 160.339844 65.726562 160.257812 C 65.433594 160.132812 64.996094 159.851562 64.410156 159.414062 C 63.804688 158.972656 63.148438 158.398438 62.441406 157.691406 C 61.730469 156.980469 61 156.148438 60.25 155.1875 C 59.496094 154.226562 58.820312 153.164062 58.214844 151.996094 C 57.589844 150.804688 57.078125 149.535156 56.679688 148.175781 C 56.285156 146.820312 56.078125 145.402344 56.054688 143.921875 C 56.035156 142.417969 56.242188 140.863281 56.679688 139.257812 C 57.140625 137.628906 57.914062 135.972656 58.996094 134.28125 C 60.1875 132.65625 61.375 131.339844 62.566406 130.339844 C 63.773438 129.316406 64.941406 128.535156 66.070312 127.992188 C 67.195312 127.429688 68.28125 127.0625 69.324219 126.898438 C 70.019531 126.785156 70.683594 126.730469 71.3125 126.730469 Z M 227.726562 126.730469 C 228.042969 126.730469 228.347656 126.742188 228.648438 126.769531 C 230.753906 126.960938 232.757812 127.710938 234.65625 129.023438 C 235.34375 129.398438 235.9375 129.839844 236.441406 130.339844 C 236.855469 130.757812 237.191406 131.265625 237.441406 131.871094 C 237.710938 132.476562 237.722656 133.144531 237.472656 133.875 C 237.160156 134.75 236.785156 135.441406 236.347656 135.941406 C 235.90625 136.441406 235.449219 136.808594 234.96875 137.035156 C 234.46875 137.285156 233.96875 137.433594 233.46875 137.472656 C 233.167969 137.511719 232.875 137.53125 232.589844 137.53125 C 232.398438 137.53125 232.210938 137.523438 232.027344 137.503906 C 231.546875 137.441406 231.121094 137.378906 230.746094 137.316406 C 230.347656 137.234375 230.035156 137.191406 229.804688 137.191406 C 229.636719 137.109375 229.417969 137.003906 229.148438 136.878906 C 228.855469 136.734375 228.523438 136.640625 228.148438 136.597656 C 227.984375 136.570312 227.816406 136.558594 227.640625 136.558594 C 227.40625 136.558594 227.15625 136.582031 226.894531 136.628906 C 226.414062 136.734375 225.925781 136.953125 225.425781 137.285156 C 224.902344 137.640625 224.371094 138.152344 223.828125 138.820312 C 223.265625 139.507812 222.703125 140.417969 222.136719 141.542969 C 221.660156 142.753906 221.46875 143.804688 221.574219 144.703125 C 221.699219 145.601562 222.003906 146.363281 222.484375 146.988281 C 222.960938 147.636719 223.558594 148.15625 224.265625 148.554688 C 224.976562 148.96875 225.675781 149.292969 226.363281 149.523438 C 227.074219 149.773438 227.699219 149.941406 228.242188 150.023438 C 228.785156 150.128906 229.136719 150.179688 229.304688 150.179688 C 229.472656 150.179688 229.765625 150.222656 230.179688 150.304688 C 230.597656 150.410156 231.046875 150.566406 231.527344 150.773438 C 232.007812 151.003906 232.476562 151.296875 232.933594 151.652344 C 233.394531 152.027344 233.757812 152.496094 234.03125 153.058594 C 234.300781 153.644531 234.425781 154.320312 234.40625 155.09375 C 234.386719 155.886719 234.132812 156.804688 233.65625 157.847656 C 233.175781 158.972656 232.621094 159.828125 231.996094 160.414062 C 231.347656 160.996094 230.671875 161.382812 229.960938 161.570312 C 229.398438 161.730469 228.832031 161.8125 228.257812 161.8125 C 228.085938 161.8125 227.914062 161.804688 227.738281 161.789062 C 226.988281 161.707031 226.269531 161.570312 225.582031 161.382812 C 224.871094 161.175781 224.222656 160.957031 223.640625 160.726562 C 223.035156 160.496094 222.535156 160.339844 222.136719 160.257812 C 221.847656 160.132812 221.40625 159.851562 220.824219 159.414062 C 220.21875 158.972656 219.5625 158.398438 218.851562 157.691406 C 218.144531 156.980469 217.414062 156.148438 216.660156 155.1875 C 215.910156 154.226562 215.234375 153.164062 214.628906 151.996094 C 214 150.804688 213.492188 149.535156 213.09375 148.175781 C 212.699219 146.820312 212.488281 145.402344 212.46875 143.921875 C 212.445312 142.417969 212.65625 140.863281 213.09375 139.257812 C 213.554688 137.628906 214.324219 135.972656 215.410156 134.28125 C 216.597656 132.65625 217.789062 131.339844 218.976562 130.339844 C 220.1875 129.316406 221.355469 128.535156 222.484375 127.992188 C 223.609375 127.429688 224.695312 127.0625 225.738281 126.898438 C 226.433594 126.785156 227.09375 126.730469 227.726562 126.730469 Z M 122.488281 124.355469 C 122.671875 124.355469 122.859375 124.367188 123.058594 124.394531 C 123.726562 124.519531 124.289062 124.808594 124.746094 125.269531 C 125.226562 125.726562 125.625 126.28125 125.9375 126.929688 C 126.25 127.574219 126.5 128.273438 126.6875 129.023438 C 126.875 129.777344 127.03125 130.484375 127.15625 131.152344 C 127.21875 131.527344 127.34375 132.238281 127.535156 133.28125 C 127.742188 134.34375 127.972656 135.597656 128.222656 137.035156 C 128.492188 138.476562 128.785156 140.03125 129.097656 141.699219 C 129.433594 143.367188 129.765625 145.007812 130.097656 146.613281 C 130.453125 148.21875 130.796875 149.722656 131.132812 151.117188 C 131.464844 152.515625 131.789062 153.664062 132.101562 154.5625 C 132.539062 155.8125 132.8125 156.867188 132.914062 157.722656 C 133.019531 158.597656 132.949219 159.316406 132.695312 159.882812 C 132.445312 160.445312 132.007812 160.871094 131.382812 161.164062 C 130.757812 161.476562 129.941406 161.6875 128.941406 161.789062 C 127.917969 161.789062 127.136719 161.539062 126.59375 161.039062 C 126.03125 160.519531 125.59375 159.851562 125.28125 159.035156 C 124.96875 158.222656 124.726562 157.304688 124.558594 156.28125 C 124.394531 155.261719 124.195312 154.238281 123.964844 153.214844 C 123.820312 152.464844 123.640625 152.003906 123.433594 151.839844 C 123.332031 151.765625 123.226562 151.726562 123.121094 151.726562 C 122.988281 151.726562 122.851562 151.785156 122.714844 151.902344 C 122.441406 152.132812 122.171875 152.496094 121.898438 152.996094 C 121.609375 153.519531 121.328125 154.082031 121.054688 154.6875 C 120.761719 155.3125 120.480469 155.9375 120.210938 156.5625 C 119.9375 157.191406 119.6875 157.734375 119.460938 158.191406 C 119.230469 158.878906 118.925781 159.558594 118.550781 160.226562 C 118.15625 160.914062 117.675781 161.5 117.113281 161.976562 C 116.546875 162.457031 115.902344 162.78125 115.171875 162.949219 C 114.921875 163.003906 114.664062 163.03125 114.394531 163.03125 C 113.863281 163.03125 113.296875 162.921875 112.699219 162.699219 C 111.90625 162.363281 111.21875 161.882812 110.632812 161.257812 C 110.050781 160.613281 109.632812 159.890625 109.382812 159.097656 C 109.132812 158.304688 109.078125 157.480469 109.226562 156.625 C 109.371094 155.75 109.777344 154.917969 110.445312 154.125 C 110.71875 153.726562 111.050781 153.050781 111.449219 152.089844 C 111.84375 151.109375 112.273438 149.960938 112.730469 148.648438 C 113.191406 147.332031 113.660156 145.902344 114.140625 144.359375 C 114.617188 142.792969 115.097656 141.230469 115.578125 139.664062 C 116.664062 135.992188 117.8125 131.957031 119.019531 127.554688 C 119.207031 126.886719 119.492188 126.300781 119.867188 125.800781 C 120.179688 125.382812 120.585938 125.019531 121.085938 124.707031 C 121.476562 124.472656 121.945312 124.355469 122.488281 124.355469 Z M 148.558594 124.355469 C 148.738281 124.355469 148.929688 124.367188 149.125 124.394531 C 149.792969 124.519531 150.359375 124.808594 150.816406 125.269531 C 151.296875 125.726562 151.691406 126.28125 152.007812 126.929688 C 152.320312 127.574219 152.570312 128.273438 152.757812 129.023438 C 152.945312 129.777344 153.101562 130.484375 153.226562 131.152344 C 153.289062 131.527344 153.414062 132.238281 153.601562 133.28125 C 153.8125 134.34375 154.039062 135.597656 154.289062 137.035156 C 154.5625 138.476562 154.855469 140.03125 155.167969 141.699219 C 155.5 143.367188 155.835938 145.007812 156.167969 146.613281 C 156.523438 148.21875 156.867188 149.722656 157.199219 151.117188 C 157.535156 152.515625 157.859375 153.664062 158.171875 154.5625 C 158.609375 155.8125 158.878906 156.867188 158.984375 157.722656 C 159.089844 158.597656 159.015625 159.316406 158.765625 159.882812 C 158.515625 160.445312 158.078125 160.871094 157.453125 161.164062 C 156.824219 161.476562 156.011719 161.6875 155.011719 161.789062 C 153.988281 161.789062 153.207031 161.539062 152.664062 161.039062 C 152.101562 160.519531 151.660156 159.851562 151.347656 159.035156 C 151.035156 158.222656 150.796875 157.304688 150.628906 156.28125 C 150.460938 155.261719 150.265625 154.238281 150.035156 153.214844 C 149.886719 152.464844 149.710938 152.003906 149.503906 151.839844 C 149.398438 151.765625 149.296875 151.726562 149.191406 151.726562 C 149.058594 151.726562 148.921875 151.785156 148.78125 151.902344 C 148.511719 152.132812 148.238281 152.496094 147.96875 152.996094 C 147.675781 153.519531 147.394531 154.082031 147.125 154.6875 C 146.832031 155.3125 146.550781 155.9375 146.277344 156.5625 C 146.007812 157.191406 145.757812 157.734375 145.527344 158.191406 C 145.296875 158.878906 144.996094 159.558594 144.621094 160.226562 C 144.222656 160.914062 143.742188 161.5 143.179688 161.976562 C 142.617188 162.457031 141.972656 162.78125 141.242188 162.949219 C 140.988281 163.003906 140.730469 163.03125 140.464844 163.03125 C 139.933594 163.03125 139.367188 162.921875 138.769531 162.699219 C 137.976562 162.363281 137.285156 161.882812 136.703125 161.257812 C 136.117188 160.613281 135.703125 159.890625 135.449219 159.097656 C 135.199219 158.304688 135.148438 157.480469 135.292969 156.625 C 135.441406 155.75 135.847656 154.917969 136.515625 154.125 C 136.785156 153.726562 137.121094 153.050781 137.515625 152.089844 C 137.914062 151.109375 138.339844 149.960938 138.800781 148.648438 C 139.257812 147.332031 139.726562 145.902344 140.207031 144.359375 C 140.6875 142.792969 141.167969 141.230469 141.648438 139.664062 C 142.730469 135.992188 143.878906 131.957031 145.089844 127.554688 C 145.277344 126.886719 145.558594 126.300781 145.933594 125.800781 C 146.246094 125.382812 146.65625 125.019531 147.15625 124.707031 C 147.546875 124.472656 148.015625 124.355469 148.558594 124.355469 Z M 174.625 124.355469 C 174.808594 124.355469 174.996094 124.367188 175.195312 124.394531 C 175.863281 124.519531 176.425781 124.808594 176.886719 125.269531 C 177.367188 125.726562 177.761719 126.28125 178.074219 126.929688 C 178.386719 127.574219 178.636719 128.273438 178.824219 129.023438 C 179.011719 129.777344 179.171875 130.484375 179.296875 131.152344 C 179.359375 131.527344 179.484375 132.238281 179.671875 133.28125 C 179.878906 134.34375 180.109375 135.597656 180.359375 137.035156 C 180.628906 138.476562 180.921875 140.03125 181.234375 141.699219 C 181.570312 143.367188 181.902344 145.007812 182.238281 146.613281 C 182.589844 148.21875 182.9375 149.722656 183.269531 151.117188 C 183.605469 152.515625 183.925781 153.664062 184.238281 154.5625 C 184.679688 155.8125 184.949219 156.867188 185.054688 157.722656 C 185.15625 158.597656 185.085938 159.316406 184.835938 159.882812 C 184.585938 160.445312 184.144531 160.871094 183.519531 161.164062 C 182.894531 161.476562 182.082031 161.6875 181.078125 161.789062 C 180.058594 161.789062 179.273438 161.539062 178.730469 161.039062 C 178.167969 160.519531 177.730469 159.851562 177.417969 159.035156 C 177.105469 158.222656 176.863281 157.304688 176.699219 156.28125 C 176.53125 155.261719 176.332031 154.238281 176.101562 153.214844 C 175.957031 152.464844 175.78125 152.003906 175.570312 151.839844 C 175.46875 151.765625 175.363281 151.726562 175.257812 151.726562 C 175.125 151.726562 174.992188 151.785156 174.851562 151.902344 C 174.582031 152.132812 174.308594 152.496094 174.039062 152.996094 C 173.746094 153.519531 173.464844 154.082031 173.191406 154.6875 C 172.902344 155.3125 172.617188 155.9375 172.347656 156.5625 C 172.078125 157.191406 171.828125 157.734375 171.597656 158.191406 C 171.367188 158.878906 171.066406 159.558594 170.6875 160.226562 C 170.292969 160.914062 169.8125 161.5 169.25 161.976562 C 168.6875 162.457031 168.039062 162.78125 167.308594 162.949219 C 167.058594 163.003906 166.800781 163.03125 166.535156 163.03125 C 166 163.03125 165.433594 162.921875 164.835938 162.699219 C 164.042969 162.363281 163.355469 161.882812 162.773438 161.257812 C 162.1875 160.613281 161.769531 159.890625 161.519531 159.097656 C 161.269531 158.304688 161.21875 157.480469 161.363281 156.625 C 161.507812 155.75 161.917969 154.917969 162.582031 154.125 C 162.855469 153.726562 163.1875 153.050781 163.585938 152.089844 C 163.980469 151.109375 164.410156 149.960938 164.867188 148.648438 C 165.328125 147.332031 165.796875 145.902344 166.277344 144.359375 C 166.757812 142.792969 167.234375 141.230469 167.714844 139.664062 C 168.800781 135.992188 169.949219 131.957031 171.160156 127.554688 C 171.347656 126.886719 171.628906 126.300781 172.003906 125.800781 C 172.316406 125.382812 172.722656 125.019531 173.222656 124.707031 C 173.617188 124.472656 174.082031 124.355469 174.625 124.355469 Z M 256.089844 125.417969 C 256.355469 125.417969 256.605469 125.460938 256.84375 125.550781 C 257.34375 125.757812 257.785156 126.082031 258.160156 126.519531 C 258.554688 126.960938 258.890625 127.46875 259.160156 128.054688 C 259.453125 128.640625 259.691406 129.210938 259.878906 129.777344 C 260.089844 130.359375 260.253906 130.890625 260.378906 131.371094 C 260.507812 131.851562 260.601562 132.195312 260.664062 132.40625 C 260.664062 132.84375 260.714844 133.5625 260.820312 134.5625 C 260.921875 135.566406 261.070312 136.703125 261.257812 137.976562 C 261.445312 139.269531 261.664062 140.625 261.914062 142.042969 C 262.183594 143.460938 262.476562 144.808594 262.789062 146.082031 C 263.101562 147.375 263.40625 148.636719 263.699219 149.867188 C 264.011719 151.117188 264.167969 152.277344 264.167969 153.339844 C 264.167969 154.40625 263.949219 155.34375 263.511719 156.15625 C 263.070312 156.992188 262.257812 157.617188 261.070312 158.035156 C 260.585938 158.164062 260.140625 158.230469 259.730469 158.230469 C 259.488281 158.230469 259.253906 158.207031 259.035156 158.160156 C 258.429688 158.015625 257.898438 157.765625 257.4375 157.410156 C 256.980469 157.054688 256.59375 156.617188 256.28125 156.09375 C 255.949219 155.574219 255.65625 155.042969 255.40625 154.5 C 255.15625 153.957031 254.945312 153.433594 254.777344 152.933594 C 254.613281 152.414062 254.457031 151.972656 254.308594 151.621094 C 254.183594 151.097656 253.996094 150.585938 253.746094 150.085938 C 253.496094 149.566406 253.195312 149.117188 252.839844 148.742188 C 252.484375 148.363281 252.109375 148.082031 251.710938 147.894531 C 251.445312 147.773438 251.171875 147.714844 250.894531 147.714844 C 250.742188 147.714844 250.585938 147.734375 250.429688 147.769531 C 249.992188 147.769531 249.59375 147.925781 249.238281 148.238281 C 248.886719 148.554688 248.601562 149 248.394531 149.585938 C 248.1875 150.167969 248.070312 150.890625 248.050781 151.746094 C 248.007812 152.601562 248.09375 153.558594 248.300781 154.625 C 248.507812 155.792969 248.613281 156.917969 248.613281 158.003906 C 248.59375 159.089844 248.425781 160.058594 248.113281 160.914062 C 247.78125 161.769531 247.289062 162.46875 246.640625 163.011719 C 245.976562 163.574219 245.109375 163.910156 244.042969 164.011719 C 243.253906 164.011719 242.585938 163.867188 242.042969 163.574219 C 241.480469 163.261719 241.007812 162.863281 240.632812 162.386719 C 240.238281 161.882812 239.933594 161.332031 239.726562 160.726562 C 239.496094 160.101562 239.320312 159.476562 239.195312 158.847656 C 239.070312 158.203125 238.996094 157.585938 238.976562 157.003906 C 238.933594 156.417969 238.914062 155.90625 238.914062 155.46875 C 238.953125 155.15625 238.984375 154.613281 239.007812 153.839844 C 239.046875 153.050781 239.070312 152.121094 239.070312 151.054688 C 239.089844 149.992188 239.101562 148.835938 239.101562 147.582031 C 239.101562 146.332031 239.089844 145.078125 239.070312 143.828125 C 239.027344 140.886719 238.976562 137.652344 238.914062 134.125 C 238.953125 133.5 239.152344 132.914062 239.507812 132.375 C 239.800781 131.914062 240.257812 131.476562 240.882812 131.058594 C 241.53125 130.640625 242.449219 130.378906 243.636719 130.277344 C 243.789062 130.261719 243.9375 130.257812 244.074219 130.257812 C 244.585938 130.257812 245.015625 130.347656 245.359375 130.527344 C 245.796875 130.757812 246.140625 131.078125 246.390625 131.496094 C 246.640625 131.914062 246.820312 132.382812 246.925781 132.90625 C 247.027344 133.425781 247.082031 133.949219 247.082031 134.46875 C 247.101562 135.011719 247.101562 135.511719 247.082031 135.972656 C 247.039062 136.453125 247.019531 136.839844 247.019531 137.128906 C 246.914062 137.566406 246.828125 138.027344 246.765625 138.507812 C 246.683594 139.007812 246.703125 139.464844 246.828125 139.882812 C 246.976562 140.320312 247.257812 140.675781 247.675781 140.949219 C 248.09375 141.238281 248.730469 141.386719 249.585938 141.386719 C 250.4375 141.386719 251.023438 141.09375 251.335938 140.511719 C 251.671875 139.90625 251.847656 139.183594 251.867188 138.351562 C 251.910156 137.515625 251.859375 136.671875 251.710938 135.816406 C 251.546875 134.960938 251.410156 134.261719 251.304688 133.71875 C 251.304688 133.363281 251.304688 132.9375 251.304688 132.4375 C 251.285156 131.933594 251.292969 131.414062 251.335938 130.871094 C 251.398438 130.308594 251.492188 129.746094 251.617188 129.179688 C 251.765625 128.617188 251.972656 128.097656 252.246094 127.617188 C 252.535156 127.136719 252.910156 126.71875 253.371094 126.363281 C 253.851562 125.988281 254.445312 125.726562 255.15625 125.582031 C 255.484375 125.472656 255.796875 125.417969 256.089844 125.417969 Z M 94.265625 127.664062 C 94.734375 127.664062 95.226562 127.6875 95.738281 127.742188 C 96.863281 127.910156 97.90625 128.222656 98.867188 128.679688 C 99.828125 129.140625 100.671875 129.722656 101.402344 130.433594 C 102.132812 131.164062 102.738281 132.007812 103.21875 132.96875 C 103.71875 133.949219 104.0625 135.042969 104.25 136.253906 C 104.4375 137.464844 104.375 138.546875 104.0625 139.507812 C 103.726562 140.46875 103.3125 141.292969 102.808594 141.980469 C 102.289062 142.691406 101.765625 143.253906 101.246094 143.671875 C 100.722656 144.089844 100.378906 144.339844 100.210938 144.421875 C 100.023438 144.503906 99.816406 144.621094 99.585938 144.765625 C 99.355469 144.933594 99.128906 145.152344 98.898438 145.421875 C 98.667969 145.714844 98.4375 146.070312 98.210938 146.488281 C 97.980469 146.925781 97.773438 147.457031 97.582031 148.082031 C 97.5 148.648438 97.644531 149.21875 98.023438 149.804688 C 98.417969 150.410156 98.898438 150.972656 99.460938 151.496094 C 100.023438 152.035156 100.589844 152.527344 101.152344 152.964844 C 101.714844 153.425781 102.132812 153.789062 102.402344 154.0625 C 102.652344 154.3125 102.925781 154.632812 103.21875 155.03125 C 103.53125 155.425781 103.800781 155.867188 104.03125 156.34375 C 104.28125 156.824219 104.46875 157.324219 104.59375 157.847656 C 104.71875 158.367188 104.730469 158.871094 104.625 159.347656 C 104.5 159.851562 104.238281 160.320312 103.84375 160.757812 C 103.445312 161.195312 102.839844 161.570312 102.027344 161.882812 C 101.234375 162.125 100.53125 162.246094 99.917969 162.246094 C 99.632812 162.246094 99.363281 162.21875 99.117188 162.167969 C 98.324219 161.976562 97.675781 161.632812 97.175781 161.132812 C 96.65625 160.613281 96.257812 159.976562 95.988281 159.222656 C 95.695312 158.472656 95.476562 157.703125 95.332031 156.910156 C 95.164062 156.117188 95.039062 155.363281 94.953125 154.65625 C 94.851562 153.945312 94.734375 153.371094 94.609375 152.933594 C 94.421875 152.371094 94.246094 151.921875 94.078125 151.589844 C 93.890625 151.253906 93.722656 151.003906 93.578125 150.835938 C 93.410156 150.648438 93.265625 150.523438 93.140625 150.460938 C 92.992188 150.398438 92.867188 150.367188 92.765625 150.367188 C 92.578125 150.367188 92.453125 150.453125 92.390625 150.617188 C 92.328125 150.785156 92.296875 150.984375 92.296875 151.210938 C 92.296875 151.441406 92.304688 151.683594 92.328125 151.933594 C 92.367188 152.183594 92.390625 152.390625 92.390625 152.558594 C 92.390625 153.121094 92.484375 154 92.671875 155.1875 C 92.859375 156.375 93.152344 157.722656 93.546875 159.222656 C 93.714844 159.890625 93.796875 160.589844 93.796875 161.320312 C 93.816406 162.074219 93.691406 162.75 93.421875 163.355469 C 93.128906 163.960938 92.671875 164.441406 92.042969 164.796875 C 91.554688 165.089844 90.910156 165.234375 90.113281 165.234375 C 89.894531 165.234375 89.660156 165.222656 89.414062 165.203125 C 88.308594 165.015625 87.507812 164.691406 87.007812 164.230469 C 86.484375 163.75 86.171875 163.21875 86.066406 162.636719 C 85.941406 162.050781 85.964844 161.457031 86.128906 160.851562 C 86.316406 160.246094 86.558594 159.703125 86.851562 159.222656 C 87.101562 158.933594 87.246094 158.347656 87.289062 157.472656 C 87.351562 156.59375 87.351562 155.542969 87.289062 154.3125 C 87.203125 153.082031 87.089844 151.734375 86.945312 150.273438 C 86.777344 148.792969 86.597656 147.289062 86.410156 145.765625 C 86.203125 144.246094 86.003906 142.761719 85.816406 141.324219 C 85.628906 139.863281 85.472656 138.546875 85.347656 137.378906 C 85.203125 136.441406 85.140625 135.605469 85.160156 134.875 C 85.179688 134.148438 85.253906 133.488281 85.378906 132.90625 C 85.523438 132.320312 85.703125 131.820312 85.910156 131.402344 C 86.121094 130.984375 86.347656 130.621094 86.597656 130.308594 C 87.164062 129.597656 87.863281 129.097656 88.695312 128.804688 C 89.300781 128.535156 89.96875 128.304688 90.699219 128.117188 C 91.324219 127.949219 92.066406 127.824219 92.921875 127.742188 C 93.347656 127.6875 93.796875 127.664062 94.265625 127.664062 Z M 102.355469 165.132812 C 102.25 165.207031 102.148438 165.285156 102.046875 165.367188 C 102.085938 165.335938 102.121094 165.304688 102.160156 165.273438 L 102.15625 165.273438 C 102.21875 165.226562 102.285156 165.179688 102.351562 165.132812 Z M 173.09375 169.917969 C 171.707031 170.574219 170.445312 171.457031 169.347656 172.523438 L 169.34375 172.523438 C 169.953125 171.917969 170.566406 171.378906 171.179688 170.90625 L 171.175781 170.90625 C 171.769531 170.558594 172.40625 170.230469 173.085938 169.917969 Z M 232.09375 90.007812 C 232.054688 90.007812 232.015625 90.007812 231.976562 90.007812 C 229.816406 90.023438 227.628906 90.550781 225.589844 91.632812 C 219.808594 94.703125 217.085938 101.273438 218.648438 107.347656 C 216.292969 105.054688 214.320312 103.277344 212.726562 102.011719 C 210.8125 100.488281 208.53125 99.5 206.113281 99.140625 C 205.375 99.03125 204.648438 98.976562 203.933594 98.976562 C 203.894531 98.976562 203.851562 98.976562 203.8125 98.980469 C 201.53125 99 199.355469 99.570312 197.277344 100.699219 C 191.320312 103.933594 188.851562 108.65625 189.863281 114.863281 C 188.164062 112.824219 186.414062 110.71875 184.609375 108.546875 C 181.875 105.261719 177.921875 103.535156 173.917969 103.535156 C 173.878906 103.535156 173.839844 103.535156 173.800781 103.535156 C 171.132812 103.558594 168.449219 104.347656 166.097656 105.949219 C 164.242188 107.214844 162.78125 108.859375 161.761719 110.714844 C 155.25 103.285156 150.410156 98.058594 147.246094 95.039062 C 144.574219 92.492188 141.121094 91.203125 137.65625 91.203125 C 137.617188 91.203125 137.578125 91.203125 137.539062 91.203125 C 134.519531 91.230469 131.496094 92.238281 128.984375 94.246094 C 125.25 97.234375 123.429688 101.804688 123.820312 106.304688 C 122.722656 105.140625 121.671875 104.050781 120.675781 103.035156 C 117.976562 100.285156 114.378906 98.875 110.757812 98.875 C 110.71875 98.875 110.679688 98.875 110.640625 98.875 C 107.78125 98.898438 104.917969 99.800781 102.476562 101.617188 C 99.527344 103.808594 97.671875 106.972656 97.078125 110.371094 L 97.074219 110.371094 L 95.628906 108.777344 C 92.90625 105.777344 89.140625 104.21875 85.332031 104.21875 C 85.292969 104.21875 85.253906 104.21875 85.214844 104.21875 C 82.546875 104.242188 79.867188 105.03125 77.519531 106.628906 C 73.015625 109.695312 70.832031 115.003906 71.597656 120.152344 L 66.644531 114.371094 C 66.488281 114.183594 66.324219 114.003906 66.152344 113.828125 C 62.445312 109.933594 59.652344 107.242188 57.773438 105.753906 C 54.324219 103.023438 50.976562 101.660156 47.722656 101.660156 C 47.691406 101.660156 47.65625 101.660156 47.625 101.660156 C 45.601562 101.675781 43.617188 102.222656 41.671875 103.296875 L 41.667969 103.296875 C 41.550781 103.347656 41.4375 103.402344 41.320312 103.460938 C 37.527344 105.308594 35.046875 107.792969 33.878906 110.90625 C 31.246094 108.507812 27.890625 107.289062 24.523438 107.289062 C 24.480469 107.289062 24.441406 107.289062 24.402344 107.289062 C 21.335938 107.316406 18.265625 108.351562 15.726562 110.429688 C 10.148438 114.996094 8.988281 123.070312 13.058594 129.019531 C 21.351562 141.152344 29.210938 157.933594 36.636719 179.367188 C 38.628906 185.109375 44.007812 188.714844 49.761719 188.714844 C 49.800781 188.714844 49.839844 188.714844 49.878906 188.714844 C 51.351562 188.703125 52.84375 188.453125 54.308594 187.945312 C 58.667969 186.4375 61.792969 182.976562 63.046875 178.882812 L 63.050781 178.882812 C 65.949219 182.109375 68.480469 185.066406 70.648438 187.761719 C 70.9375 188.121094 71.242188 188.464844 71.566406 188.792969 C 75.117188 192.40625 78.648438 194.214844 82.15625 194.214844 C 82.1875 194.214844 82.214844 194.214844 82.242188 194.214844 C 85.519531 194.1875 88.777344 192.582031 92.015625 189.398438 C 93.386719 188.046875 94.429688 186.5625 95.136719 184.941406 L 95.140625 184.941406 C 97.070312 186.394531 98.792969 187.519531 100.308594 188.316406 C 103.660156 190.074219 106.796875 190.953125 109.722656 190.953125 C 109.765625 190.953125 109.808594 190.953125 109.847656 190.953125 C 113.488281 190.921875 116.804688 189.523438 119.789062 186.757812 L 119.785156 186.757812 C 120.152344 186.453125 120.5 186.136719 120.824219 185.808594 L 120.828125 185.808594 C 122.269531 187.308594 123.40625 188.421875 124.234375 189.152344 C 124.789062 189.644531 125.34375 190.085938 125.898438 190.480469 L 125.894531 190.480469 C 128.734375 192.816406 131.132812 194.546875 133.082031 195.671875 C 136.488281 197.632812 139.648438 198.613281 142.5625 198.613281 C 142.597656 198.613281 142.636719 198.613281 142.671875 198.613281 C 146.625 198.578125 150.121094 196.734375 153.167969 193.082031 C 154.84375 191.070312 155.902344 188.757812 156.34375 186.144531 C 156.457031 185.476562 156.519531 184.796875 156.53125 184.121094 L 156.535156 184.121094 C 159.097656 186.417969 161.339844 188.289062 163.261719 189.726562 L 163.257812 189.726562 C 165.777344 191.675781 167.957031 193.148438 169.796875 194.148438 C 173.035156 195.902344 176.066406 196.78125 178.886719 196.78125 C 178.925781 196.78125 178.964844 196.78125 179.003906 196.78125 C 181.820312 196.757812 184.425781 195.855469 186.824219 194.074219 L 186.820312 194.074219 C 189.613281 192.441406 191.539062 190.371094 192.597656 187.859375 L 192.601562 187.859375 C 193.199219 188.320312 193.761719 188.730469 194.296875 189.089844 C 195.347656 189.792969 196.390625 190.382812 197.421875 190.859375 L 197.417969 190.859375 C 200.792969 192.667969 203.867188 193.570312 206.644531 193.570312 C 206.683594 193.570312 206.71875 193.570312 206.753906 193.570312 C 210.90625 193.535156 214.386719 191.46875 217.203125 187.375 L 217.207031 187.375 C 220.636719 190.476562 223.519531 192.710938 225.859375 194.089844 C 226.582031 194.511719 227.292969 194.886719 227.996094 195.210938 L 227.992188 195.210938 C 228.539062 195.488281 229.070312 195.742188 229.589844 195.972656 C 232.898438 197.429688 235.90625 198.160156 238.609375 198.160156 C 238.648438 198.160156 238.691406 198.160156 238.734375 198.160156 C 243.738281 198.117188 247.695312 195.554688 250.601562 190.476562 L 250.597656 190.476562 C 251.816406 188.9375 252.582031 187.0625 252.886719 184.851562 L 252.894531 184.851562 C 255.210938 186.683594 257.265625 188.078125 259.0625 189.035156 C 262.195312 190.707031 265.246094 191.539062 268.210938 191.539062 C 268.253906 191.539062 268.300781 191.539062 268.34375 191.539062 C 269.921875 191.527344 271.476562 191.277344 273.003906 190.789062 C 273.105469 190.757812 273.210938 190.722656 273.3125 190.6875 C 283.078125 187.332031 286.164062 180.429688 282.574219 169.984375 C 282.367188 169.378906 282.125 168.761719 281.851562 168.136719 C 281.546875 167.429688 281.195312 166.703125 280.796875 165.957031 L 280.785156 165.929688 L 244.375 97.382812 C 241.878906 92.683594 237.070312 90.007812 232.09375 90.007812 Z M 232.09375 90.007812 " fill-opacity="1" fill-rule="nonzero"/></g></g></svg>